%TF.GenerationSoftware,KiCad,Pcbnew,9.0.6*%
%TF.CreationDate,2025-12-31T21:00:04+02:00*%
%TF.ProjectId,MiPi,4d695069-2e6b-4696-9361-645f70636258,1.0*%
%TF.SameCoordinates,Original*%
%TF.FileFunction,Legend,Bot*%
%TF.FilePolarity,Positive*%
%FSLAX46Y46*%
G04 Gerber Fmt 4.6, Leading zero omitted, Abs format (unit mm)*
G04 Created by KiCad (PCBNEW 9.0.6) date 2025-12-31 21:00:04*
%MOMM*%
%LPD*%
G01*
G04 APERTURE LIST*
%ADD10C,0.150000*%
%ADD11C,0.125000*%
%ADD12C,0.025000*%
%ADD13C,0.120000*%
%ADD14C,0.191421*%
G04 APERTURE END LIST*
D10*
X115667319Y-90883333D02*
X115191128Y-90550000D01*
X115667319Y-90311905D02*
X114667319Y-90311905D01*
X114667319Y-90311905D02*
X114667319Y-90692857D01*
X114667319Y-90692857D02*
X114714938Y-90788095D01*
X114714938Y-90788095D02*
X114762557Y-90835714D01*
X114762557Y-90835714D02*
X114857795Y-90883333D01*
X114857795Y-90883333D02*
X115000652Y-90883333D01*
X115000652Y-90883333D02*
X115095890Y-90835714D01*
X115095890Y-90835714D02*
X115143509Y-90788095D01*
X115143509Y-90788095D02*
X115191128Y-90692857D01*
X115191128Y-90692857D02*
X115191128Y-90311905D01*
X114667319Y-91216667D02*
X114667319Y-91835714D01*
X114667319Y-91835714D02*
X115048271Y-91502381D01*
X115048271Y-91502381D02*
X115048271Y-91645238D01*
X115048271Y-91645238D02*
X115095890Y-91740476D01*
X115095890Y-91740476D02*
X115143509Y-91788095D01*
X115143509Y-91788095D02*
X115238747Y-91835714D01*
X115238747Y-91835714D02*
X115476842Y-91835714D01*
X115476842Y-91835714D02*
X115572080Y-91788095D01*
X115572080Y-91788095D02*
X115619700Y-91740476D01*
X115619700Y-91740476D02*
X115667319Y-91645238D01*
X115667319Y-91645238D02*
X115667319Y-91359524D01*
X115667319Y-91359524D02*
X115619700Y-91264286D01*
X115619700Y-91264286D02*
X115572080Y-91216667D01*
X105555357Y-77109580D02*
X105602976Y-77157200D01*
X105602976Y-77157200D02*
X105745833Y-77204819D01*
X105745833Y-77204819D02*
X105841071Y-77204819D01*
X105841071Y-77204819D02*
X105983928Y-77157200D01*
X105983928Y-77157200D02*
X106079166Y-77061961D01*
X106079166Y-77061961D02*
X106126785Y-76966723D01*
X106126785Y-76966723D02*
X106174404Y-76776247D01*
X106174404Y-76776247D02*
X106174404Y-76633390D01*
X106174404Y-76633390D02*
X106126785Y-76442914D01*
X106126785Y-76442914D02*
X106079166Y-76347676D01*
X106079166Y-76347676D02*
X105983928Y-76252438D01*
X105983928Y-76252438D02*
X105841071Y-76204819D01*
X105841071Y-76204819D02*
X105745833Y-76204819D01*
X105745833Y-76204819D02*
X105602976Y-76252438D01*
X105602976Y-76252438D02*
X105555357Y-76300057D01*
X104602976Y-77204819D02*
X105174404Y-77204819D01*
X104888690Y-77204819D02*
X104888690Y-76204819D01*
X104888690Y-76204819D02*
X104983928Y-76347676D01*
X104983928Y-76347676D02*
X105079166Y-76442914D01*
X105079166Y-76442914D02*
X105174404Y-76490533D01*
X104269642Y-76204819D02*
X103650595Y-76204819D01*
X103650595Y-76204819D02*
X103983928Y-76585771D01*
X103983928Y-76585771D02*
X103841071Y-76585771D01*
X103841071Y-76585771D02*
X103745833Y-76633390D01*
X103745833Y-76633390D02*
X103698214Y-76681009D01*
X103698214Y-76681009D02*
X103650595Y-76776247D01*
X103650595Y-76776247D02*
X103650595Y-77014342D01*
X103650595Y-77014342D02*
X103698214Y-77109580D01*
X103698214Y-77109580D02*
X103745833Y-77157200D01*
X103745833Y-77157200D02*
X103841071Y-77204819D01*
X103841071Y-77204819D02*
X104126785Y-77204819D01*
X104126785Y-77204819D02*
X104222023Y-77157200D01*
X104222023Y-77157200D02*
X104269642Y-77109580D01*
D11*
X100781428Y-77277190D02*
X100805237Y-77301000D01*
X100805237Y-77301000D02*
X100876666Y-77324809D01*
X100876666Y-77324809D02*
X100924285Y-77324809D01*
X100924285Y-77324809D02*
X100995713Y-77301000D01*
X100995713Y-77301000D02*
X101043332Y-77253380D01*
X101043332Y-77253380D02*
X101067142Y-77205761D01*
X101067142Y-77205761D02*
X101090951Y-77110523D01*
X101090951Y-77110523D02*
X101090951Y-77039095D01*
X101090951Y-77039095D02*
X101067142Y-76943857D01*
X101067142Y-76943857D02*
X101043332Y-76896238D01*
X101043332Y-76896238D02*
X100995713Y-76848619D01*
X100995713Y-76848619D02*
X100924285Y-76824809D01*
X100924285Y-76824809D02*
X100876666Y-76824809D01*
X100876666Y-76824809D02*
X100805237Y-76848619D01*
X100805237Y-76848619D02*
X100781428Y-76872428D01*
X100590951Y-76872428D02*
X100567142Y-76848619D01*
X100567142Y-76848619D02*
X100519523Y-76824809D01*
X100519523Y-76824809D02*
X100400475Y-76824809D01*
X100400475Y-76824809D02*
X100352856Y-76848619D01*
X100352856Y-76848619D02*
X100329047Y-76872428D01*
X100329047Y-76872428D02*
X100305237Y-76920047D01*
X100305237Y-76920047D02*
X100305237Y-76967666D01*
X100305237Y-76967666D02*
X100329047Y-77039095D01*
X100329047Y-77039095D02*
X100614761Y-77324809D01*
X100614761Y-77324809D02*
X100305237Y-77324809D01*
X100067142Y-77324809D02*
X99971904Y-77324809D01*
X99971904Y-77324809D02*
X99924285Y-77301000D01*
X99924285Y-77301000D02*
X99900476Y-77277190D01*
X99900476Y-77277190D02*
X99852857Y-77205761D01*
X99852857Y-77205761D02*
X99829047Y-77110523D01*
X99829047Y-77110523D02*
X99829047Y-76920047D01*
X99829047Y-76920047D02*
X99852857Y-76872428D01*
X99852857Y-76872428D02*
X99876666Y-76848619D01*
X99876666Y-76848619D02*
X99924285Y-76824809D01*
X99924285Y-76824809D02*
X100019523Y-76824809D01*
X100019523Y-76824809D02*
X100067142Y-76848619D01*
X100067142Y-76848619D02*
X100090952Y-76872428D01*
X100090952Y-76872428D02*
X100114761Y-76920047D01*
X100114761Y-76920047D02*
X100114761Y-77039095D01*
X100114761Y-77039095D02*
X100090952Y-77086714D01*
X100090952Y-77086714D02*
X100067142Y-77110523D01*
X100067142Y-77110523D02*
X100019523Y-77134333D01*
X100019523Y-77134333D02*
X99924285Y-77134333D01*
X99924285Y-77134333D02*
X99876666Y-77110523D01*
X99876666Y-77110523D02*
X99852857Y-77086714D01*
X99852857Y-77086714D02*
X99829047Y-77039095D01*
D10*
X97016666Y-92549819D02*
X97349999Y-92073628D01*
X97588094Y-92549819D02*
X97588094Y-91549819D01*
X97588094Y-91549819D02*
X97207142Y-91549819D01*
X97207142Y-91549819D02*
X97111904Y-91597438D01*
X97111904Y-91597438D02*
X97064285Y-91645057D01*
X97064285Y-91645057D02*
X97016666Y-91740295D01*
X97016666Y-91740295D02*
X97016666Y-91883152D01*
X97016666Y-91883152D02*
X97064285Y-91978390D01*
X97064285Y-91978390D02*
X97111904Y-92026009D01*
X97111904Y-92026009D02*
X97207142Y-92073628D01*
X97207142Y-92073628D02*
X97588094Y-92073628D01*
X96445237Y-91978390D02*
X96540475Y-91930771D01*
X96540475Y-91930771D02*
X96588094Y-91883152D01*
X96588094Y-91883152D02*
X96635713Y-91787914D01*
X96635713Y-91787914D02*
X96635713Y-91740295D01*
X96635713Y-91740295D02*
X96588094Y-91645057D01*
X96588094Y-91645057D02*
X96540475Y-91597438D01*
X96540475Y-91597438D02*
X96445237Y-91549819D01*
X96445237Y-91549819D02*
X96254761Y-91549819D01*
X96254761Y-91549819D02*
X96159523Y-91597438D01*
X96159523Y-91597438D02*
X96111904Y-91645057D01*
X96111904Y-91645057D02*
X96064285Y-91740295D01*
X96064285Y-91740295D02*
X96064285Y-91787914D01*
X96064285Y-91787914D02*
X96111904Y-91883152D01*
X96111904Y-91883152D02*
X96159523Y-91930771D01*
X96159523Y-91930771D02*
X96254761Y-91978390D01*
X96254761Y-91978390D02*
X96445237Y-91978390D01*
X96445237Y-91978390D02*
X96540475Y-92026009D01*
X96540475Y-92026009D02*
X96588094Y-92073628D01*
X96588094Y-92073628D02*
X96635713Y-92168866D01*
X96635713Y-92168866D02*
X96635713Y-92359342D01*
X96635713Y-92359342D02*
X96588094Y-92454580D01*
X96588094Y-92454580D02*
X96540475Y-92502200D01*
X96540475Y-92502200D02*
X96445237Y-92549819D01*
X96445237Y-92549819D02*
X96254761Y-92549819D01*
X96254761Y-92549819D02*
X96159523Y-92502200D01*
X96159523Y-92502200D02*
X96111904Y-92454580D01*
X96111904Y-92454580D02*
X96064285Y-92359342D01*
X96064285Y-92359342D02*
X96064285Y-92168866D01*
X96064285Y-92168866D02*
X96111904Y-92073628D01*
X96111904Y-92073628D02*
X96159523Y-92026009D01*
X96159523Y-92026009D02*
X96254761Y-91978390D01*
X119924404Y-71804819D02*
X119924404Y-72614342D01*
X119924404Y-72614342D02*
X119876785Y-72709580D01*
X119876785Y-72709580D02*
X119829166Y-72757200D01*
X119829166Y-72757200D02*
X119733928Y-72804819D01*
X119733928Y-72804819D02*
X119543452Y-72804819D01*
X119543452Y-72804819D02*
X119448214Y-72757200D01*
X119448214Y-72757200D02*
X119400595Y-72709580D01*
X119400595Y-72709580D02*
X119352976Y-72614342D01*
X119352976Y-72614342D02*
X119352976Y-71804819D01*
X118352976Y-72804819D02*
X118924404Y-72804819D01*
X118638690Y-72804819D02*
X118638690Y-71804819D01*
X118638690Y-71804819D02*
X118733928Y-71947676D01*
X118733928Y-71947676D02*
X118829166Y-72042914D01*
X118829166Y-72042914D02*
X118924404Y-72090533D01*
X119654819Y-62916666D02*
X120369104Y-62916666D01*
X120369104Y-62916666D02*
X120511961Y-62869047D01*
X120511961Y-62869047D02*
X120607200Y-62773809D01*
X120607200Y-62773809D02*
X120654819Y-62630952D01*
X120654819Y-62630952D02*
X120654819Y-62535714D01*
X119654819Y-63297619D02*
X119654819Y-63916666D01*
X119654819Y-63916666D02*
X120035771Y-63583333D01*
X120035771Y-63583333D02*
X120035771Y-63726190D01*
X120035771Y-63726190D02*
X120083390Y-63821428D01*
X120083390Y-63821428D02*
X120131009Y-63869047D01*
X120131009Y-63869047D02*
X120226247Y-63916666D01*
X120226247Y-63916666D02*
X120464342Y-63916666D01*
X120464342Y-63916666D02*
X120559580Y-63869047D01*
X120559580Y-63869047D02*
X120607200Y-63821428D01*
X120607200Y-63821428D02*
X120654819Y-63726190D01*
X120654819Y-63726190D02*
X120654819Y-63440476D01*
X120654819Y-63440476D02*
X120607200Y-63345238D01*
X120607200Y-63345238D02*
X120559580Y-63297619D01*
D11*
X79324809Y-79128571D02*
X79086714Y-78961905D01*
X79324809Y-78842857D02*
X78824809Y-78842857D01*
X78824809Y-78842857D02*
X78824809Y-79033333D01*
X78824809Y-79033333D02*
X78848619Y-79080952D01*
X78848619Y-79080952D02*
X78872428Y-79104762D01*
X78872428Y-79104762D02*
X78920047Y-79128571D01*
X78920047Y-79128571D02*
X78991476Y-79128571D01*
X78991476Y-79128571D02*
X79039095Y-79104762D01*
X79039095Y-79104762D02*
X79062904Y-79080952D01*
X79062904Y-79080952D02*
X79086714Y-79033333D01*
X79086714Y-79033333D02*
X79086714Y-78842857D01*
X78872428Y-79319048D02*
X78848619Y-79342857D01*
X78848619Y-79342857D02*
X78824809Y-79390476D01*
X78824809Y-79390476D02*
X78824809Y-79509524D01*
X78824809Y-79509524D02*
X78848619Y-79557143D01*
X78848619Y-79557143D02*
X78872428Y-79580952D01*
X78872428Y-79580952D02*
X78920047Y-79604762D01*
X78920047Y-79604762D02*
X78967666Y-79604762D01*
X78967666Y-79604762D02*
X79039095Y-79580952D01*
X79039095Y-79580952D02*
X79324809Y-79295238D01*
X79324809Y-79295238D02*
X79324809Y-79604762D01*
X78991476Y-80033333D02*
X79324809Y-80033333D01*
X78801000Y-79914285D02*
X79158142Y-79795238D01*
X79158142Y-79795238D02*
X79158142Y-80104761D01*
D12*
X86710438Y-82010714D02*
X86715200Y-82005952D01*
X86715200Y-82005952D02*
X86719961Y-81991666D01*
X86719961Y-81991666D02*
X86719961Y-81982142D01*
X86719961Y-81982142D02*
X86715200Y-81967857D01*
X86715200Y-81967857D02*
X86705676Y-81958333D01*
X86705676Y-81958333D02*
X86696152Y-81953571D01*
X86696152Y-81953571D02*
X86677104Y-81948809D01*
X86677104Y-81948809D02*
X86662819Y-81948809D01*
X86662819Y-81948809D02*
X86643771Y-81953571D01*
X86643771Y-81953571D02*
X86634247Y-81958333D01*
X86634247Y-81958333D02*
X86624723Y-81967857D01*
X86624723Y-81967857D02*
X86619961Y-81982142D01*
X86619961Y-81982142D02*
X86619961Y-81991666D01*
X86619961Y-81991666D02*
X86624723Y-82005952D01*
X86624723Y-82005952D02*
X86629485Y-82010714D01*
X86619961Y-82044047D02*
X86619961Y-82105952D01*
X86619961Y-82105952D02*
X86658057Y-82072619D01*
X86658057Y-82072619D02*
X86658057Y-82086904D01*
X86658057Y-82086904D02*
X86662819Y-82096428D01*
X86662819Y-82096428D02*
X86667580Y-82101190D01*
X86667580Y-82101190D02*
X86677104Y-82105952D01*
X86677104Y-82105952D02*
X86700914Y-82105952D01*
X86700914Y-82105952D02*
X86710438Y-82101190D01*
X86710438Y-82101190D02*
X86715200Y-82096428D01*
X86715200Y-82096428D02*
X86719961Y-82086904D01*
X86719961Y-82086904D02*
X86719961Y-82058333D01*
X86719961Y-82058333D02*
X86715200Y-82048809D01*
X86715200Y-82048809D02*
X86710438Y-82044047D01*
X86653295Y-82191666D02*
X86719961Y-82191666D01*
X86615200Y-82167857D02*
X86686628Y-82144047D01*
X86686628Y-82144047D02*
X86686628Y-82205952D01*
D10*
X109772857Y-66749819D02*
X110106190Y-66273628D01*
X110344285Y-66749819D02*
X110344285Y-65749819D01*
X110344285Y-65749819D02*
X109963333Y-65749819D01*
X109963333Y-65749819D02*
X109868095Y-65797438D01*
X109868095Y-65797438D02*
X109820476Y-65845057D01*
X109820476Y-65845057D02*
X109772857Y-65940295D01*
X109772857Y-65940295D02*
X109772857Y-66083152D01*
X109772857Y-66083152D02*
X109820476Y-66178390D01*
X109820476Y-66178390D02*
X109868095Y-66226009D01*
X109868095Y-66226009D02*
X109963333Y-66273628D01*
X109963333Y-66273628D02*
X110344285Y-66273628D01*
X108820476Y-66749819D02*
X109391904Y-66749819D01*
X109106190Y-66749819D02*
X109106190Y-65749819D01*
X109106190Y-65749819D02*
X109201428Y-65892676D01*
X109201428Y-65892676D02*
X109296666Y-65987914D01*
X109296666Y-65987914D02*
X109391904Y-66035533D01*
X108439523Y-65845057D02*
X108391904Y-65797438D01*
X108391904Y-65797438D02*
X108296666Y-65749819D01*
X108296666Y-65749819D02*
X108058571Y-65749819D01*
X108058571Y-65749819D02*
X107963333Y-65797438D01*
X107963333Y-65797438D02*
X107915714Y-65845057D01*
X107915714Y-65845057D02*
X107868095Y-65940295D01*
X107868095Y-65940295D02*
X107868095Y-66035533D01*
X107868095Y-66035533D02*
X107915714Y-66178390D01*
X107915714Y-66178390D02*
X108487142Y-66749819D01*
X108487142Y-66749819D02*
X107868095Y-66749819D01*
X109772857Y-63199819D02*
X110106190Y-62723628D01*
X110344285Y-63199819D02*
X110344285Y-62199819D01*
X110344285Y-62199819D02*
X109963333Y-62199819D01*
X109963333Y-62199819D02*
X109868095Y-62247438D01*
X109868095Y-62247438D02*
X109820476Y-62295057D01*
X109820476Y-62295057D02*
X109772857Y-62390295D01*
X109772857Y-62390295D02*
X109772857Y-62533152D01*
X109772857Y-62533152D02*
X109820476Y-62628390D01*
X109820476Y-62628390D02*
X109868095Y-62676009D01*
X109868095Y-62676009D02*
X109963333Y-62723628D01*
X109963333Y-62723628D02*
X110344285Y-62723628D01*
X108820476Y-63199819D02*
X109391904Y-63199819D01*
X109106190Y-63199819D02*
X109106190Y-62199819D01*
X109106190Y-62199819D02*
X109201428Y-62342676D01*
X109201428Y-62342676D02*
X109296666Y-62437914D01*
X109296666Y-62437914D02*
X109391904Y-62485533D01*
X108201428Y-62199819D02*
X108106190Y-62199819D01*
X108106190Y-62199819D02*
X108010952Y-62247438D01*
X108010952Y-62247438D02*
X107963333Y-62295057D01*
X107963333Y-62295057D02*
X107915714Y-62390295D01*
X107915714Y-62390295D02*
X107868095Y-62580771D01*
X107868095Y-62580771D02*
X107868095Y-62818866D01*
X107868095Y-62818866D02*
X107915714Y-63009342D01*
X107915714Y-63009342D02*
X107963333Y-63104580D01*
X107963333Y-63104580D02*
X108010952Y-63152200D01*
X108010952Y-63152200D02*
X108106190Y-63199819D01*
X108106190Y-63199819D02*
X108201428Y-63199819D01*
X108201428Y-63199819D02*
X108296666Y-63152200D01*
X108296666Y-63152200D02*
X108344285Y-63104580D01*
X108344285Y-63104580D02*
X108391904Y-63009342D01*
X108391904Y-63009342D02*
X108439523Y-62818866D01*
X108439523Y-62818866D02*
X108439523Y-62580771D01*
X108439523Y-62580771D02*
X108391904Y-62390295D01*
X108391904Y-62390295D02*
X108344285Y-62295057D01*
X108344285Y-62295057D02*
X108296666Y-62247438D01*
X108296666Y-62247438D02*
X108201428Y-62199819D01*
D12*
X94564285Y-89605438D02*
X94569047Y-89610200D01*
X94569047Y-89610200D02*
X94583333Y-89614961D01*
X94583333Y-89614961D02*
X94592857Y-89614961D01*
X94592857Y-89614961D02*
X94607142Y-89610200D01*
X94607142Y-89610200D02*
X94616666Y-89600676D01*
X94616666Y-89600676D02*
X94621428Y-89591152D01*
X94621428Y-89591152D02*
X94626190Y-89572104D01*
X94626190Y-89572104D02*
X94626190Y-89557819D01*
X94626190Y-89557819D02*
X94621428Y-89538771D01*
X94621428Y-89538771D02*
X94616666Y-89529247D01*
X94616666Y-89529247D02*
X94607142Y-89519723D01*
X94607142Y-89519723D02*
X94592857Y-89514961D01*
X94592857Y-89514961D02*
X94583333Y-89514961D01*
X94583333Y-89514961D02*
X94569047Y-89519723D01*
X94569047Y-89519723D02*
X94564285Y-89524485D01*
X94526190Y-89524485D02*
X94521428Y-89519723D01*
X94521428Y-89519723D02*
X94511904Y-89514961D01*
X94511904Y-89514961D02*
X94488095Y-89514961D01*
X94488095Y-89514961D02*
X94478571Y-89519723D01*
X94478571Y-89519723D02*
X94473809Y-89524485D01*
X94473809Y-89524485D02*
X94469047Y-89534009D01*
X94469047Y-89534009D02*
X94469047Y-89543533D01*
X94469047Y-89543533D02*
X94473809Y-89557819D01*
X94473809Y-89557819D02*
X94530952Y-89614961D01*
X94530952Y-89614961D02*
X94469047Y-89614961D01*
X94411904Y-89557819D02*
X94421428Y-89553057D01*
X94421428Y-89553057D02*
X94426190Y-89548295D01*
X94426190Y-89548295D02*
X94430952Y-89538771D01*
X94430952Y-89538771D02*
X94430952Y-89534009D01*
X94430952Y-89534009D02*
X94426190Y-89524485D01*
X94426190Y-89524485D02*
X94421428Y-89519723D01*
X94421428Y-89519723D02*
X94411904Y-89514961D01*
X94411904Y-89514961D02*
X94392857Y-89514961D01*
X94392857Y-89514961D02*
X94383333Y-89519723D01*
X94383333Y-89519723D02*
X94378571Y-89524485D01*
X94378571Y-89524485D02*
X94373809Y-89534009D01*
X94373809Y-89534009D02*
X94373809Y-89538771D01*
X94373809Y-89538771D02*
X94378571Y-89548295D01*
X94378571Y-89548295D02*
X94383333Y-89553057D01*
X94383333Y-89553057D02*
X94392857Y-89557819D01*
X94392857Y-89557819D02*
X94411904Y-89557819D01*
X94411904Y-89557819D02*
X94421428Y-89562580D01*
X94421428Y-89562580D02*
X94426190Y-89567342D01*
X94426190Y-89567342D02*
X94430952Y-89576866D01*
X94430952Y-89576866D02*
X94430952Y-89595914D01*
X94430952Y-89595914D02*
X94426190Y-89605438D01*
X94426190Y-89605438D02*
X94421428Y-89610200D01*
X94421428Y-89610200D02*
X94411904Y-89614961D01*
X94411904Y-89614961D02*
X94392857Y-89614961D01*
X94392857Y-89614961D02*
X94383333Y-89610200D01*
X94383333Y-89610200D02*
X94378571Y-89605438D01*
X94378571Y-89605438D02*
X94373809Y-89595914D01*
X94373809Y-89595914D02*
X94373809Y-89576866D01*
X94373809Y-89576866D02*
X94378571Y-89567342D01*
X94378571Y-89567342D02*
X94383333Y-89562580D01*
X94383333Y-89562580D02*
X94392857Y-89557819D01*
X91714285Y-93480438D02*
X91719047Y-93485200D01*
X91719047Y-93485200D02*
X91733333Y-93489961D01*
X91733333Y-93489961D02*
X91742857Y-93489961D01*
X91742857Y-93489961D02*
X91757142Y-93485200D01*
X91757142Y-93485200D02*
X91766666Y-93475676D01*
X91766666Y-93475676D02*
X91771428Y-93466152D01*
X91771428Y-93466152D02*
X91776190Y-93447104D01*
X91776190Y-93447104D02*
X91776190Y-93432819D01*
X91776190Y-93432819D02*
X91771428Y-93413771D01*
X91771428Y-93413771D02*
X91766666Y-93404247D01*
X91766666Y-93404247D02*
X91757142Y-93394723D01*
X91757142Y-93394723D02*
X91742857Y-93389961D01*
X91742857Y-93389961D02*
X91733333Y-93389961D01*
X91733333Y-93389961D02*
X91719047Y-93394723D01*
X91719047Y-93394723D02*
X91714285Y-93399485D01*
X91619047Y-93489961D02*
X91676190Y-93489961D01*
X91647618Y-93489961D02*
X91647618Y-93389961D01*
X91647618Y-93389961D02*
X91657142Y-93404247D01*
X91657142Y-93404247D02*
X91666666Y-93413771D01*
X91666666Y-93413771D02*
X91676190Y-93418533D01*
X91571428Y-93489961D02*
X91552380Y-93489961D01*
X91552380Y-93489961D02*
X91542857Y-93485200D01*
X91542857Y-93485200D02*
X91538095Y-93480438D01*
X91538095Y-93480438D02*
X91528571Y-93466152D01*
X91528571Y-93466152D02*
X91523809Y-93447104D01*
X91523809Y-93447104D02*
X91523809Y-93409009D01*
X91523809Y-93409009D02*
X91528571Y-93399485D01*
X91528571Y-93399485D02*
X91533333Y-93394723D01*
X91533333Y-93394723D02*
X91542857Y-93389961D01*
X91542857Y-93389961D02*
X91561904Y-93389961D01*
X91561904Y-93389961D02*
X91571428Y-93394723D01*
X91571428Y-93394723D02*
X91576190Y-93399485D01*
X91576190Y-93399485D02*
X91580952Y-93409009D01*
X91580952Y-93409009D02*
X91580952Y-93432819D01*
X91580952Y-93432819D02*
X91576190Y-93442342D01*
X91576190Y-93442342D02*
X91571428Y-93447104D01*
X91571428Y-93447104D02*
X91561904Y-93451866D01*
X91561904Y-93451866D02*
X91542857Y-93451866D01*
X91542857Y-93451866D02*
X91533333Y-93447104D01*
X91533333Y-93447104D02*
X91528571Y-93442342D01*
X91528571Y-93442342D02*
X91523809Y-93432819D01*
D10*
X115742857Y-62204819D02*
X116076190Y-61728628D01*
X116314285Y-62204819D02*
X116314285Y-61204819D01*
X116314285Y-61204819D02*
X115933333Y-61204819D01*
X115933333Y-61204819D02*
X115838095Y-61252438D01*
X115838095Y-61252438D02*
X115790476Y-61300057D01*
X115790476Y-61300057D02*
X115742857Y-61395295D01*
X115742857Y-61395295D02*
X115742857Y-61538152D01*
X115742857Y-61538152D02*
X115790476Y-61633390D01*
X115790476Y-61633390D02*
X115838095Y-61681009D01*
X115838095Y-61681009D02*
X115933333Y-61728628D01*
X115933333Y-61728628D02*
X116314285Y-61728628D01*
X115361904Y-61300057D02*
X115314285Y-61252438D01*
X115314285Y-61252438D02*
X115219047Y-61204819D01*
X115219047Y-61204819D02*
X114980952Y-61204819D01*
X114980952Y-61204819D02*
X114885714Y-61252438D01*
X114885714Y-61252438D02*
X114838095Y-61300057D01*
X114838095Y-61300057D02*
X114790476Y-61395295D01*
X114790476Y-61395295D02*
X114790476Y-61490533D01*
X114790476Y-61490533D02*
X114838095Y-61633390D01*
X114838095Y-61633390D02*
X115409523Y-62204819D01*
X115409523Y-62204819D02*
X114790476Y-62204819D01*
X114219047Y-61633390D02*
X114314285Y-61585771D01*
X114314285Y-61585771D02*
X114361904Y-61538152D01*
X114361904Y-61538152D02*
X114409523Y-61442914D01*
X114409523Y-61442914D02*
X114409523Y-61395295D01*
X114409523Y-61395295D02*
X114361904Y-61300057D01*
X114361904Y-61300057D02*
X114314285Y-61252438D01*
X114314285Y-61252438D02*
X114219047Y-61204819D01*
X114219047Y-61204819D02*
X114028571Y-61204819D01*
X114028571Y-61204819D02*
X113933333Y-61252438D01*
X113933333Y-61252438D02*
X113885714Y-61300057D01*
X113885714Y-61300057D02*
X113838095Y-61395295D01*
X113838095Y-61395295D02*
X113838095Y-61442914D01*
X113838095Y-61442914D02*
X113885714Y-61538152D01*
X113885714Y-61538152D02*
X113933333Y-61585771D01*
X113933333Y-61585771D02*
X114028571Y-61633390D01*
X114028571Y-61633390D02*
X114219047Y-61633390D01*
X114219047Y-61633390D02*
X114314285Y-61681009D01*
X114314285Y-61681009D02*
X114361904Y-61728628D01*
X114361904Y-61728628D02*
X114409523Y-61823866D01*
X114409523Y-61823866D02*
X114409523Y-62014342D01*
X114409523Y-62014342D02*
X114361904Y-62109580D01*
X114361904Y-62109580D02*
X114314285Y-62157200D01*
X114314285Y-62157200D02*
X114219047Y-62204819D01*
X114219047Y-62204819D02*
X114028571Y-62204819D01*
X114028571Y-62204819D02*
X113933333Y-62157200D01*
X113933333Y-62157200D02*
X113885714Y-62109580D01*
X113885714Y-62109580D02*
X113838095Y-62014342D01*
X113838095Y-62014342D02*
X113838095Y-61823866D01*
X113838095Y-61823866D02*
X113885714Y-61728628D01*
X113885714Y-61728628D02*
X113933333Y-61681009D01*
X113933333Y-61681009D02*
X114028571Y-61633390D01*
D11*
X87627190Y-70428571D02*
X87651000Y-70404762D01*
X87651000Y-70404762D02*
X87674809Y-70333333D01*
X87674809Y-70333333D02*
X87674809Y-70285714D01*
X87674809Y-70285714D02*
X87651000Y-70214286D01*
X87651000Y-70214286D02*
X87603380Y-70166667D01*
X87603380Y-70166667D02*
X87555761Y-70142857D01*
X87555761Y-70142857D02*
X87460523Y-70119048D01*
X87460523Y-70119048D02*
X87389095Y-70119048D01*
X87389095Y-70119048D02*
X87293857Y-70142857D01*
X87293857Y-70142857D02*
X87246238Y-70166667D01*
X87246238Y-70166667D02*
X87198619Y-70214286D01*
X87198619Y-70214286D02*
X87174809Y-70285714D01*
X87174809Y-70285714D02*
X87174809Y-70333333D01*
X87174809Y-70333333D02*
X87198619Y-70404762D01*
X87198619Y-70404762D02*
X87222428Y-70428571D01*
X87174809Y-70595238D02*
X87174809Y-70904762D01*
X87174809Y-70904762D02*
X87365285Y-70738095D01*
X87365285Y-70738095D02*
X87365285Y-70809524D01*
X87365285Y-70809524D02*
X87389095Y-70857143D01*
X87389095Y-70857143D02*
X87412904Y-70880952D01*
X87412904Y-70880952D02*
X87460523Y-70904762D01*
X87460523Y-70904762D02*
X87579571Y-70904762D01*
X87579571Y-70904762D02*
X87627190Y-70880952D01*
X87627190Y-70880952D02*
X87651000Y-70857143D01*
X87651000Y-70857143D02*
X87674809Y-70809524D01*
X87674809Y-70809524D02*
X87674809Y-70666667D01*
X87674809Y-70666667D02*
X87651000Y-70619048D01*
X87651000Y-70619048D02*
X87627190Y-70595238D01*
X87174809Y-71333333D02*
X87174809Y-71238095D01*
X87174809Y-71238095D02*
X87198619Y-71190476D01*
X87198619Y-71190476D02*
X87222428Y-71166666D01*
X87222428Y-71166666D02*
X87293857Y-71119047D01*
X87293857Y-71119047D02*
X87389095Y-71095238D01*
X87389095Y-71095238D02*
X87579571Y-71095238D01*
X87579571Y-71095238D02*
X87627190Y-71119047D01*
X87627190Y-71119047D02*
X87651000Y-71142857D01*
X87651000Y-71142857D02*
X87674809Y-71190476D01*
X87674809Y-71190476D02*
X87674809Y-71285714D01*
X87674809Y-71285714D02*
X87651000Y-71333333D01*
X87651000Y-71333333D02*
X87627190Y-71357142D01*
X87627190Y-71357142D02*
X87579571Y-71380952D01*
X87579571Y-71380952D02*
X87460523Y-71380952D01*
X87460523Y-71380952D02*
X87412904Y-71357142D01*
X87412904Y-71357142D02*
X87389095Y-71333333D01*
X87389095Y-71333333D02*
X87365285Y-71285714D01*
X87365285Y-71285714D02*
X87365285Y-71190476D01*
X87365285Y-71190476D02*
X87389095Y-71142857D01*
X87389095Y-71142857D02*
X87412904Y-71119047D01*
X87412904Y-71119047D02*
X87460523Y-71095238D01*
D10*
X110289166Y-69542319D02*
X110765356Y-69542319D01*
X110765356Y-69542319D02*
X110765356Y-68542319D01*
X109432023Y-69542319D02*
X110003451Y-69542319D01*
X109717737Y-69542319D02*
X109717737Y-68542319D01*
X109717737Y-68542319D02*
X109812975Y-68685176D01*
X109812975Y-68685176D02*
X109908213Y-68780414D01*
X109908213Y-68780414D02*
X110003451Y-68828033D01*
X109772857Y-68499819D02*
X110106190Y-68023628D01*
X110344285Y-68499819D02*
X110344285Y-67499819D01*
X110344285Y-67499819D02*
X109963333Y-67499819D01*
X109963333Y-67499819D02*
X109868095Y-67547438D01*
X109868095Y-67547438D02*
X109820476Y-67595057D01*
X109820476Y-67595057D02*
X109772857Y-67690295D01*
X109772857Y-67690295D02*
X109772857Y-67833152D01*
X109772857Y-67833152D02*
X109820476Y-67928390D01*
X109820476Y-67928390D02*
X109868095Y-67976009D01*
X109868095Y-67976009D02*
X109963333Y-68023628D01*
X109963333Y-68023628D02*
X110344285Y-68023628D01*
X108820476Y-68499819D02*
X109391904Y-68499819D01*
X109106190Y-68499819D02*
X109106190Y-67499819D01*
X109106190Y-67499819D02*
X109201428Y-67642676D01*
X109201428Y-67642676D02*
X109296666Y-67737914D01*
X109296666Y-67737914D02*
X109391904Y-67785533D01*
X108487142Y-67499819D02*
X107868095Y-67499819D01*
X107868095Y-67499819D02*
X108201428Y-67880771D01*
X108201428Y-67880771D02*
X108058571Y-67880771D01*
X108058571Y-67880771D02*
X107963333Y-67928390D01*
X107963333Y-67928390D02*
X107915714Y-67976009D01*
X107915714Y-67976009D02*
X107868095Y-68071247D01*
X107868095Y-68071247D02*
X107868095Y-68309342D01*
X107868095Y-68309342D02*
X107915714Y-68404580D01*
X107915714Y-68404580D02*
X107963333Y-68452200D01*
X107963333Y-68452200D02*
X108058571Y-68499819D01*
X108058571Y-68499819D02*
X108344285Y-68499819D01*
X108344285Y-68499819D02*
X108439523Y-68452200D01*
X108439523Y-68452200D02*
X108487142Y-68404580D01*
D11*
X87627190Y-65778571D02*
X87651000Y-65754762D01*
X87651000Y-65754762D02*
X87674809Y-65683333D01*
X87674809Y-65683333D02*
X87674809Y-65635714D01*
X87674809Y-65635714D02*
X87651000Y-65564286D01*
X87651000Y-65564286D02*
X87603380Y-65516667D01*
X87603380Y-65516667D02*
X87555761Y-65492857D01*
X87555761Y-65492857D02*
X87460523Y-65469048D01*
X87460523Y-65469048D02*
X87389095Y-65469048D01*
X87389095Y-65469048D02*
X87293857Y-65492857D01*
X87293857Y-65492857D02*
X87246238Y-65516667D01*
X87246238Y-65516667D02*
X87198619Y-65564286D01*
X87198619Y-65564286D02*
X87174809Y-65635714D01*
X87174809Y-65635714D02*
X87174809Y-65683333D01*
X87174809Y-65683333D02*
X87198619Y-65754762D01*
X87198619Y-65754762D02*
X87222428Y-65778571D01*
X87174809Y-65945238D02*
X87174809Y-66254762D01*
X87174809Y-66254762D02*
X87365285Y-66088095D01*
X87365285Y-66088095D02*
X87365285Y-66159524D01*
X87365285Y-66159524D02*
X87389095Y-66207143D01*
X87389095Y-66207143D02*
X87412904Y-66230952D01*
X87412904Y-66230952D02*
X87460523Y-66254762D01*
X87460523Y-66254762D02*
X87579571Y-66254762D01*
X87579571Y-66254762D02*
X87627190Y-66230952D01*
X87627190Y-66230952D02*
X87651000Y-66207143D01*
X87651000Y-66207143D02*
X87674809Y-66159524D01*
X87674809Y-66159524D02*
X87674809Y-66016667D01*
X87674809Y-66016667D02*
X87651000Y-65969048D01*
X87651000Y-65969048D02*
X87627190Y-65945238D01*
X87174809Y-66421428D02*
X87174809Y-66754761D01*
X87174809Y-66754761D02*
X87674809Y-66540476D01*
D12*
X107485438Y-70885714D02*
X107490200Y-70880952D01*
X107490200Y-70880952D02*
X107494961Y-70866666D01*
X107494961Y-70866666D02*
X107494961Y-70857142D01*
X107494961Y-70857142D02*
X107490200Y-70842857D01*
X107490200Y-70842857D02*
X107480676Y-70833333D01*
X107480676Y-70833333D02*
X107471152Y-70828571D01*
X107471152Y-70828571D02*
X107452104Y-70823809D01*
X107452104Y-70823809D02*
X107437819Y-70823809D01*
X107437819Y-70823809D02*
X107418771Y-70828571D01*
X107418771Y-70828571D02*
X107409247Y-70833333D01*
X107409247Y-70833333D02*
X107399723Y-70842857D01*
X107399723Y-70842857D02*
X107394961Y-70857142D01*
X107394961Y-70857142D02*
X107394961Y-70866666D01*
X107394961Y-70866666D02*
X107399723Y-70880952D01*
X107399723Y-70880952D02*
X107404485Y-70885714D01*
X107494961Y-70980952D02*
X107494961Y-70923809D01*
X107494961Y-70952381D02*
X107394961Y-70952381D01*
X107394961Y-70952381D02*
X107409247Y-70942857D01*
X107409247Y-70942857D02*
X107418771Y-70933333D01*
X107418771Y-70933333D02*
X107423533Y-70923809D01*
X107428295Y-71066666D02*
X107494961Y-71066666D01*
X107390200Y-71042857D02*
X107461628Y-71019047D01*
X107461628Y-71019047D02*
X107461628Y-71080952D01*
D11*
X90223809Y-74716395D02*
X89985714Y-74549729D01*
X90223809Y-74430681D02*
X89723809Y-74430681D01*
X89723809Y-74430681D02*
X89723809Y-74621157D01*
X89723809Y-74621157D02*
X89747619Y-74668776D01*
X89747619Y-74668776D02*
X89771428Y-74692586D01*
X89771428Y-74692586D02*
X89819047Y-74716395D01*
X89819047Y-74716395D02*
X89890476Y-74716395D01*
X89890476Y-74716395D02*
X89938095Y-74692586D01*
X89938095Y-74692586D02*
X89961904Y-74668776D01*
X89961904Y-74668776D02*
X89985714Y-74621157D01*
X89985714Y-74621157D02*
X89985714Y-74430681D01*
X89771428Y-74906872D02*
X89747619Y-74930681D01*
X89747619Y-74930681D02*
X89723809Y-74978300D01*
X89723809Y-74978300D02*
X89723809Y-75097348D01*
X89723809Y-75097348D02*
X89747619Y-75144967D01*
X89747619Y-75144967D02*
X89771428Y-75168776D01*
X89771428Y-75168776D02*
X89819047Y-75192586D01*
X89819047Y-75192586D02*
X89866666Y-75192586D01*
X89866666Y-75192586D02*
X89938095Y-75168776D01*
X89938095Y-75168776D02*
X90223809Y-74883062D01*
X90223809Y-74883062D02*
X90223809Y-75192586D01*
X89771428Y-75383062D02*
X89747619Y-75406871D01*
X89747619Y-75406871D02*
X89723809Y-75454490D01*
X89723809Y-75454490D02*
X89723809Y-75573538D01*
X89723809Y-75573538D02*
X89747619Y-75621157D01*
X89747619Y-75621157D02*
X89771428Y-75644966D01*
X89771428Y-75644966D02*
X89819047Y-75668776D01*
X89819047Y-75668776D02*
X89866666Y-75668776D01*
X89866666Y-75668776D02*
X89938095Y-75644966D01*
X89938095Y-75644966D02*
X90223809Y-75359252D01*
X90223809Y-75359252D02*
X90223809Y-75668776D01*
D12*
X94634285Y-94530438D02*
X94639047Y-94535200D01*
X94639047Y-94535200D02*
X94653333Y-94539961D01*
X94653333Y-94539961D02*
X94662857Y-94539961D01*
X94662857Y-94539961D02*
X94677142Y-94535200D01*
X94677142Y-94535200D02*
X94686666Y-94525676D01*
X94686666Y-94525676D02*
X94691428Y-94516152D01*
X94691428Y-94516152D02*
X94696190Y-94497104D01*
X94696190Y-94497104D02*
X94696190Y-94482819D01*
X94696190Y-94482819D02*
X94691428Y-94463771D01*
X94691428Y-94463771D02*
X94686666Y-94454247D01*
X94686666Y-94454247D02*
X94677142Y-94444723D01*
X94677142Y-94444723D02*
X94662857Y-94439961D01*
X94662857Y-94439961D02*
X94653333Y-94439961D01*
X94653333Y-94439961D02*
X94639047Y-94444723D01*
X94639047Y-94444723D02*
X94634285Y-94449485D01*
X94596190Y-94449485D02*
X94591428Y-94444723D01*
X94591428Y-94444723D02*
X94581904Y-94439961D01*
X94581904Y-94439961D02*
X94558095Y-94439961D01*
X94558095Y-94439961D02*
X94548571Y-94444723D01*
X94548571Y-94444723D02*
X94543809Y-94449485D01*
X94543809Y-94449485D02*
X94539047Y-94459009D01*
X94539047Y-94459009D02*
X94539047Y-94468533D01*
X94539047Y-94468533D02*
X94543809Y-94482819D01*
X94543809Y-94482819D02*
X94600952Y-94539961D01*
X94600952Y-94539961D02*
X94539047Y-94539961D01*
X94477142Y-94439961D02*
X94467619Y-94439961D01*
X94467619Y-94439961D02*
X94458095Y-94444723D01*
X94458095Y-94444723D02*
X94453333Y-94449485D01*
X94453333Y-94449485D02*
X94448571Y-94459009D01*
X94448571Y-94459009D02*
X94443809Y-94478057D01*
X94443809Y-94478057D02*
X94443809Y-94501866D01*
X94443809Y-94501866D02*
X94448571Y-94520914D01*
X94448571Y-94520914D02*
X94453333Y-94530438D01*
X94453333Y-94530438D02*
X94458095Y-94535200D01*
X94458095Y-94535200D02*
X94467619Y-94539961D01*
X94467619Y-94539961D02*
X94477142Y-94539961D01*
X94477142Y-94539961D02*
X94486666Y-94535200D01*
X94486666Y-94535200D02*
X94491428Y-94530438D01*
X94491428Y-94530438D02*
X94496190Y-94520914D01*
X94496190Y-94520914D02*
X94500952Y-94501866D01*
X94500952Y-94501866D02*
X94500952Y-94478057D01*
X94500952Y-94478057D02*
X94496190Y-94459009D01*
X94496190Y-94459009D02*
X94491428Y-94449485D01*
X94491428Y-94449485D02*
X94486666Y-94444723D01*
X94486666Y-94444723D02*
X94477142Y-94439961D01*
D10*
X97016666Y-91399819D02*
X97349999Y-90923628D01*
X97588094Y-91399819D02*
X97588094Y-90399819D01*
X97588094Y-90399819D02*
X97207142Y-90399819D01*
X97207142Y-90399819D02*
X97111904Y-90447438D01*
X97111904Y-90447438D02*
X97064285Y-90495057D01*
X97064285Y-90495057D02*
X97016666Y-90590295D01*
X97016666Y-90590295D02*
X97016666Y-90733152D01*
X97016666Y-90733152D02*
X97064285Y-90828390D01*
X97064285Y-90828390D02*
X97111904Y-90876009D01*
X97111904Y-90876009D02*
X97207142Y-90923628D01*
X97207142Y-90923628D02*
X97588094Y-90923628D01*
X96683332Y-90399819D02*
X96016666Y-90399819D01*
X96016666Y-90399819D02*
X96445237Y-91399819D01*
X112672080Y-86507142D02*
X112719700Y-86459523D01*
X112719700Y-86459523D02*
X112767319Y-86316666D01*
X112767319Y-86316666D02*
X112767319Y-86221428D01*
X112767319Y-86221428D02*
X112719700Y-86078571D01*
X112719700Y-86078571D02*
X112624461Y-85983333D01*
X112624461Y-85983333D02*
X112529223Y-85935714D01*
X112529223Y-85935714D02*
X112338747Y-85888095D01*
X112338747Y-85888095D02*
X112195890Y-85888095D01*
X112195890Y-85888095D02*
X112005414Y-85935714D01*
X112005414Y-85935714D02*
X111910176Y-85983333D01*
X111910176Y-85983333D02*
X111814938Y-86078571D01*
X111814938Y-86078571D02*
X111767319Y-86221428D01*
X111767319Y-86221428D02*
X111767319Y-86316666D01*
X111767319Y-86316666D02*
X111814938Y-86459523D01*
X111814938Y-86459523D02*
X111862557Y-86507142D01*
X112767319Y-87459523D02*
X112767319Y-86888095D01*
X112767319Y-87173809D02*
X111767319Y-87173809D01*
X111767319Y-87173809D02*
X111910176Y-87078571D01*
X111910176Y-87078571D02*
X112005414Y-86983333D01*
X112005414Y-86983333D02*
X112053033Y-86888095D01*
X111862557Y-87840476D02*
X111814938Y-87888095D01*
X111814938Y-87888095D02*
X111767319Y-87983333D01*
X111767319Y-87983333D02*
X111767319Y-88221428D01*
X111767319Y-88221428D02*
X111814938Y-88316666D01*
X111814938Y-88316666D02*
X111862557Y-88364285D01*
X111862557Y-88364285D02*
X111957795Y-88411904D01*
X111957795Y-88411904D02*
X112053033Y-88411904D01*
X112053033Y-88411904D02*
X112195890Y-88364285D01*
X112195890Y-88364285D02*
X112767319Y-87792857D01*
X112767319Y-87792857D02*
X112767319Y-88411904D01*
X115716666Y-64754819D02*
X116049999Y-64278628D01*
X116288094Y-64754819D02*
X116288094Y-63754819D01*
X116288094Y-63754819D02*
X115907142Y-63754819D01*
X115907142Y-63754819D02*
X115811904Y-63802438D01*
X115811904Y-63802438D02*
X115764285Y-63850057D01*
X115764285Y-63850057D02*
X115716666Y-63945295D01*
X115716666Y-63945295D02*
X115716666Y-64088152D01*
X115716666Y-64088152D02*
X115764285Y-64183390D01*
X115764285Y-64183390D02*
X115811904Y-64231009D01*
X115811904Y-64231009D02*
X115907142Y-64278628D01*
X115907142Y-64278628D02*
X116288094Y-64278628D01*
X114859523Y-63754819D02*
X115049999Y-63754819D01*
X115049999Y-63754819D02*
X115145237Y-63802438D01*
X115145237Y-63802438D02*
X115192856Y-63850057D01*
X115192856Y-63850057D02*
X115288094Y-63992914D01*
X115288094Y-63992914D02*
X115335713Y-64183390D01*
X115335713Y-64183390D02*
X115335713Y-64564342D01*
X115335713Y-64564342D02*
X115288094Y-64659580D01*
X115288094Y-64659580D02*
X115240475Y-64707200D01*
X115240475Y-64707200D02*
X115145237Y-64754819D01*
X115145237Y-64754819D02*
X114954761Y-64754819D01*
X114954761Y-64754819D02*
X114859523Y-64707200D01*
X114859523Y-64707200D02*
X114811904Y-64659580D01*
X114811904Y-64659580D02*
X114764285Y-64564342D01*
X114764285Y-64564342D02*
X114764285Y-64326247D01*
X114764285Y-64326247D02*
X114811904Y-64231009D01*
X114811904Y-64231009D02*
X114859523Y-64183390D01*
X114859523Y-64183390D02*
X114954761Y-64135771D01*
X114954761Y-64135771D02*
X115145237Y-64135771D01*
X115145237Y-64135771D02*
X115240475Y-64183390D01*
X115240475Y-64183390D02*
X115288094Y-64231009D01*
X115288094Y-64231009D02*
X115335713Y-64326247D01*
X123529819Y-103247142D02*
X123053628Y-102913809D01*
X123529819Y-102675714D02*
X122529819Y-102675714D01*
X122529819Y-102675714D02*
X122529819Y-103056666D01*
X122529819Y-103056666D02*
X122577438Y-103151904D01*
X122577438Y-103151904D02*
X122625057Y-103199523D01*
X122625057Y-103199523D02*
X122720295Y-103247142D01*
X122720295Y-103247142D02*
X122863152Y-103247142D01*
X122863152Y-103247142D02*
X122958390Y-103199523D01*
X122958390Y-103199523D02*
X123006009Y-103151904D01*
X123006009Y-103151904D02*
X123053628Y-103056666D01*
X123053628Y-103056666D02*
X123053628Y-102675714D01*
X122625057Y-103628095D02*
X122577438Y-103675714D01*
X122577438Y-103675714D02*
X122529819Y-103770952D01*
X122529819Y-103770952D02*
X122529819Y-104009047D01*
X122529819Y-104009047D02*
X122577438Y-104104285D01*
X122577438Y-104104285D02*
X122625057Y-104151904D01*
X122625057Y-104151904D02*
X122720295Y-104199523D01*
X122720295Y-104199523D02*
X122815533Y-104199523D01*
X122815533Y-104199523D02*
X122958390Y-104151904D01*
X122958390Y-104151904D02*
X123529819Y-103580476D01*
X123529819Y-103580476D02*
X123529819Y-104199523D01*
X123529819Y-105151904D02*
X123529819Y-104580476D01*
X123529819Y-104866190D02*
X122529819Y-104866190D01*
X122529819Y-104866190D02*
X122672676Y-104770952D01*
X122672676Y-104770952D02*
X122767914Y-104675714D01*
X122767914Y-104675714D02*
X122815533Y-104580476D01*
D11*
X79102190Y-74933571D02*
X79126000Y-74909762D01*
X79126000Y-74909762D02*
X79149809Y-74838333D01*
X79149809Y-74838333D02*
X79149809Y-74790714D01*
X79149809Y-74790714D02*
X79126000Y-74719286D01*
X79126000Y-74719286D02*
X79078380Y-74671667D01*
X79078380Y-74671667D02*
X79030761Y-74647857D01*
X79030761Y-74647857D02*
X78935523Y-74624048D01*
X78935523Y-74624048D02*
X78864095Y-74624048D01*
X78864095Y-74624048D02*
X78768857Y-74647857D01*
X78768857Y-74647857D02*
X78721238Y-74671667D01*
X78721238Y-74671667D02*
X78673619Y-74719286D01*
X78673619Y-74719286D02*
X78649809Y-74790714D01*
X78649809Y-74790714D02*
X78649809Y-74838333D01*
X78649809Y-74838333D02*
X78673619Y-74909762D01*
X78673619Y-74909762D02*
X78697428Y-74933571D01*
X78649809Y-75100238D02*
X78649809Y-75409762D01*
X78649809Y-75409762D02*
X78840285Y-75243095D01*
X78840285Y-75243095D02*
X78840285Y-75314524D01*
X78840285Y-75314524D02*
X78864095Y-75362143D01*
X78864095Y-75362143D02*
X78887904Y-75385952D01*
X78887904Y-75385952D02*
X78935523Y-75409762D01*
X78935523Y-75409762D02*
X79054571Y-75409762D01*
X79054571Y-75409762D02*
X79102190Y-75385952D01*
X79102190Y-75385952D02*
X79126000Y-75362143D01*
X79126000Y-75362143D02*
X79149809Y-75314524D01*
X79149809Y-75314524D02*
X79149809Y-75171667D01*
X79149809Y-75171667D02*
X79126000Y-75124048D01*
X79126000Y-75124048D02*
X79102190Y-75100238D01*
X78649809Y-75576428D02*
X78649809Y-75885952D01*
X78649809Y-75885952D02*
X78840285Y-75719285D01*
X78840285Y-75719285D02*
X78840285Y-75790714D01*
X78840285Y-75790714D02*
X78864095Y-75838333D01*
X78864095Y-75838333D02*
X78887904Y-75862142D01*
X78887904Y-75862142D02*
X78935523Y-75885952D01*
X78935523Y-75885952D02*
X79054571Y-75885952D01*
X79054571Y-75885952D02*
X79102190Y-75862142D01*
X79102190Y-75862142D02*
X79126000Y-75838333D01*
X79126000Y-75838333D02*
X79149809Y-75790714D01*
X79149809Y-75790714D02*
X79149809Y-75647857D01*
X79149809Y-75647857D02*
X79126000Y-75600238D01*
X79126000Y-75600238D02*
X79102190Y-75576428D01*
D10*
X95386904Y-79709819D02*
X95386904Y-80519342D01*
X95386904Y-80519342D02*
X95339285Y-80614580D01*
X95339285Y-80614580D02*
X95291666Y-80662200D01*
X95291666Y-80662200D02*
X95196428Y-80709819D01*
X95196428Y-80709819D02*
X95005952Y-80709819D01*
X95005952Y-80709819D02*
X94910714Y-80662200D01*
X94910714Y-80662200D02*
X94863095Y-80614580D01*
X94863095Y-80614580D02*
X94815476Y-80519342D01*
X94815476Y-80519342D02*
X94815476Y-79709819D01*
X93910714Y-80043152D02*
X93910714Y-80709819D01*
X94148809Y-79662200D02*
X94386904Y-80376485D01*
X94386904Y-80376485D02*
X93767857Y-80376485D01*
X108715357Y-72897080D02*
X108762976Y-72944700D01*
X108762976Y-72944700D02*
X108905833Y-72992319D01*
X108905833Y-72992319D02*
X109001071Y-72992319D01*
X109001071Y-72992319D02*
X109143928Y-72944700D01*
X109143928Y-72944700D02*
X109239166Y-72849461D01*
X109239166Y-72849461D02*
X109286785Y-72754223D01*
X109286785Y-72754223D02*
X109334404Y-72563747D01*
X109334404Y-72563747D02*
X109334404Y-72420890D01*
X109334404Y-72420890D02*
X109286785Y-72230414D01*
X109286785Y-72230414D02*
X109239166Y-72135176D01*
X109239166Y-72135176D02*
X109143928Y-72039938D01*
X109143928Y-72039938D02*
X109001071Y-71992319D01*
X109001071Y-71992319D02*
X108905833Y-71992319D01*
X108905833Y-71992319D02*
X108762976Y-72039938D01*
X108762976Y-72039938D02*
X108715357Y-72087557D01*
X107762976Y-72992319D02*
X108334404Y-72992319D01*
X108048690Y-72992319D02*
X108048690Y-71992319D01*
X108048690Y-71992319D02*
X108143928Y-72135176D01*
X108143928Y-72135176D02*
X108239166Y-72230414D01*
X108239166Y-72230414D02*
X108334404Y-72278033D01*
X106858214Y-71992319D02*
X107334404Y-71992319D01*
X107334404Y-71992319D02*
X107382023Y-72468509D01*
X107382023Y-72468509D02*
X107334404Y-72420890D01*
X107334404Y-72420890D02*
X107239166Y-72373271D01*
X107239166Y-72373271D02*
X107001071Y-72373271D01*
X107001071Y-72373271D02*
X106905833Y-72420890D01*
X106905833Y-72420890D02*
X106858214Y-72468509D01*
X106858214Y-72468509D02*
X106810595Y-72563747D01*
X106810595Y-72563747D02*
X106810595Y-72801842D01*
X106810595Y-72801842D02*
X106858214Y-72897080D01*
X106858214Y-72897080D02*
X106905833Y-72944700D01*
X106905833Y-72944700D02*
X107001071Y-72992319D01*
X107001071Y-72992319D02*
X107239166Y-72992319D01*
X107239166Y-72992319D02*
X107334404Y-72944700D01*
X107334404Y-72944700D02*
X107382023Y-72897080D01*
X123266666Y-71224819D02*
X123599999Y-70748628D01*
X123838094Y-71224819D02*
X123838094Y-70224819D01*
X123838094Y-70224819D02*
X123457142Y-70224819D01*
X123457142Y-70224819D02*
X123361904Y-70272438D01*
X123361904Y-70272438D02*
X123314285Y-70320057D01*
X123314285Y-70320057D02*
X123266666Y-70415295D01*
X123266666Y-70415295D02*
X123266666Y-70558152D01*
X123266666Y-70558152D02*
X123314285Y-70653390D01*
X123314285Y-70653390D02*
X123361904Y-70701009D01*
X123361904Y-70701009D02*
X123457142Y-70748628D01*
X123457142Y-70748628D02*
X123838094Y-70748628D01*
X122885713Y-70320057D02*
X122838094Y-70272438D01*
X122838094Y-70272438D02*
X122742856Y-70224819D01*
X122742856Y-70224819D02*
X122504761Y-70224819D01*
X122504761Y-70224819D02*
X122409523Y-70272438D01*
X122409523Y-70272438D02*
X122361904Y-70320057D01*
X122361904Y-70320057D02*
X122314285Y-70415295D01*
X122314285Y-70415295D02*
X122314285Y-70510533D01*
X122314285Y-70510533D02*
X122361904Y-70653390D01*
X122361904Y-70653390D02*
X122933332Y-71224819D01*
X122933332Y-71224819D02*
X122314285Y-71224819D01*
X105279166Y-74709580D02*
X105326785Y-74757200D01*
X105326785Y-74757200D02*
X105469642Y-74804819D01*
X105469642Y-74804819D02*
X105564880Y-74804819D01*
X105564880Y-74804819D02*
X105707737Y-74757200D01*
X105707737Y-74757200D02*
X105802975Y-74661961D01*
X105802975Y-74661961D02*
X105850594Y-74566723D01*
X105850594Y-74566723D02*
X105898213Y-74376247D01*
X105898213Y-74376247D02*
X105898213Y-74233390D01*
X105898213Y-74233390D02*
X105850594Y-74042914D01*
X105850594Y-74042914D02*
X105802975Y-73947676D01*
X105802975Y-73947676D02*
X105707737Y-73852438D01*
X105707737Y-73852438D02*
X105564880Y-73804819D01*
X105564880Y-73804819D02*
X105469642Y-73804819D01*
X105469642Y-73804819D02*
X105326785Y-73852438D01*
X105326785Y-73852438D02*
X105279166Y-73900057D01*
X104326785Y-74804819D02*
X104898213Y-74804819D01*
X104612499Y-74804819D02*
X104612499Y-73804819D01*
X104612499Y-73804819D02*
X104707737Y-73947676D01*
X104707737Y-73947676D02*
X104802975Y-74042914D01*
X104802975Y-74042914D02*
X104898213Y-74090533D01*
D11*
X88924809Y-79533571D02*
X88686714Y-79366905D01*
X88924809Y-79247857D02*
X88424809Y-79247857D01*
X88424809Y-79247857D02*
X88424809Y-79438333D01*
X88424809Y-79438333D02*
X88448619Y-79485952D01*
X88448619Y-79485952D02*
X88472428Y-79509762D01*
X88472428Y-79509762D02*
X88520047Y-79533571D01*
X88520047Y-79533571D02*
X88591476Y-79533571D01*
X88591476Y-79533571D02*
X88639095Y-79509762D01*
X88639095Y-79509762D02*
X88662904Y-79485952D01*
X88662904Y-79485952D02*
X88686714Y-79438333D01*
X88686714Y-79438333D02*
X88686714Y-79247857D01*
X88472428Y-79724048D02*
X88448619Y-79747857D01*
X88448619Y-79747857D02*
X88424809Y-79795476D01*
X88424809Y-79795476D02*
X88424809Y-79914524D01*
X88424809Y-79914524D02*
X88448619Y-79962143D01*
X88448619Y-79962143D02*
X88472428Y-79985952D01*
X88472428Y-79985952D02*
X88520047Y-80009762D01*
X88520047Y-80009762D02*
X88567666Y-80009762D01*
X88567666Y-80009762D02*
X88639095Y-79985952D01*
X88639095Y-79985952D02*
X88924809Y-79700238D01*
X88924809Y-79700238D02*
X88924809Y-80009762D01*
X88424809Y-80462142D02*
X88424809Y-80224047D01*
X88424809Y-80224047D02*
X88662904Y-80200238D01*
X88662904Y-80200238D02*
X88639095Y-80224047D01*
X88639095Y-80224047D02*
X88615285Y-80271666D01*
X88615285Y-80271666D02*
X88615285Y-80390714D01*
X88615285Y-80390714D02*
X88639095Y-80438333D01*
X88639095Y-80438333D02*
X88662904Y-80462142D01*
X88662904Y-80462142D02*
X88710523Y-80485952D01*
X88710523Y-80485952D02*
X88829571Y-80485952D01*
X88829571Y-80485952D02*
X88877190Y-80462142D01*
X88877190Y-80462142D02*
X88901000Y-80438333D01*
X88901000Y-80438333D02*
X88924809Y-80390714D01*
X88924809Y-80390714D02*
X88924809Y-80271666D01*
X88924809Y-80271666D02*
X88901000Y-80224047D01*
X88901000Y-80224047D02*
X88877190Y-80200238D01*
X87456428Y-74429809D02*
X87623094Y-74191714D01*
X87742142Y-74429809D02*
X87742142Y-73929809D01*
X87742142Y-73929809D02*
X87551666Y-73929809D01*
X87551666Y-73929809D02*
X87504047Y-73953619D01*
X87504047Y-73953619D02*
X87480237Y-73977428D01*
X87480237Y-73977428D02*
X87456428Y-74025047D01*
X87456428Y-74025047D02*
X87456428Y-74096476D01*
X87456428Y-74096476D02*
X87480237Y-74144095D01*
X87480237Y-74144095D02*
X87504047Y-74167904D01*
X87504047Y-74167904D02*
X87551666Y-74191714D01*
X87551666Y-74191714D02*
X87742142Y-74191714D01*
X87265951Y-73977428D02*
X87242142Y-73953619D01*
X87242142Y-73953619D02*
X87194523Y-73929809D01*
X87194523Y-73929809D02*
X87075475Y-73929809D01*
X87075475Y-73929809D02*
X87027856Y-73953619D01*
X87027856Y-73953619D02*
X87004047Y-73977428D01*
X87004047Y-73977428D02*
X86980237Y-74025047D01*
X86980237Y-74025047D02*
X86980237Y-74072666D01*
X86980237Y-74072666D02*
X87004047Y-74144095D01*
X87004047Y-74144095D02*
X87289761Y-74429809D01*
X87289761Y-74429809D02*
X86980237Y-74429809D01*
X86551666Y-73929809D02*
X86646904Y-73929809D01*
X86646904Y-73929809D02*
X86694523Y-73953619D01*
X86694523Y-73953619D02*
X86718333Y-73977428D01*
X86718333Y-73977428D02*
X86765952Y-74048857D01*
X86765952Y-74048857D02*
X86789761Y-74144095D01*
X86789761Y-74144095D02*
X86789761Y-74334571D01*
X86789761Y-74334571D02*
X86765952Y-74382190D01*
X86765952Y-74382190D02*
X86742142Y-74406000D01*
X86742142Y-74406000D02*
X86694523Y-74429809D01*
X86694523Y-74429809D02*
X86599285Y-74429809D01*
X86599285Y-74429809D02*
X86551666Y-74406000D01*
X86551666Y-74406000D02*
X86527857Y-74382190D01*
X86527857Y-74382190D02*
X86504047Y-74334571D01*
X86504047Y-74334571D02*
X86504047Y-74215523D01*
X86504047Y-74215523D02*
X86527857Y-74167904D01*
X86527857Y-74167904D02*
X86551666Y-74144095D01*
X86551666Y-74144095D02*
X86599285Y-74120285D01*
X86599285Y-74120285D02*
X86694523Y-74120285D01*
X86694523Y-74120285D02*
X86742142Y-74144095D01*
X86742142Y-74144095D02*
X86765952Y-74167904D01*
X86765952Y-74167904D02*
X86789761Y-74215523D01*
D10*
X105529166Y-82309580D02*
X105576785Y-82357200D01*
X105576785Y-82357200D02*
X105719642Y-82404819D01*
X105719642Y-82404819D02*
X105814880Y-82404819D01*
X105814880Y-82404819D02*
X105957737Y-82357200D01*
X105957737Y-82357200D02*
X106052975Y-82261961D01*
X106052975Y-82261961D02*
X106100594Y-82166723D01*
X106100594Y-82166723D02*
X106148213Y-81976247D01*
X106148213Y-81976247D02*
X106148213Y-81833390D01*
X106148213Y-81833390D02*
X106100594Y-81642914D01*
X106100594Y-81642914D02*
X106052975Y-81547676D01*
X106052975Y-81547676D02*
X105957737Y-81452438D01*
X105957737Y-81452438D02*
X105814880Y-81404819D01*
X105814880Y-81404819D02*
X105719642Y-81404819D01*
X105719642Y-81404819D02*
X105576785Y-81452438D01*
X105576785Y-81452438D02*
X105529166Y-81500057D01*
X104672023Y-81404819D02*
X104862499Y-81404819D01*
X104862499Y-81404819D02*
X104957737Y-81452438D01*
X104957737Y-81452438D02*
X105005356Y-81500057D01*
X105005356Y-81500057D02*
X105100594Y-81642914D01*
X105100594Y-81642914D02*
X105148213Y-81833390D01*
X105148213Y-81833390D02*
X105148213Y-82214342D01*
X105148213Y-82214342D02*
X105100594Y-82309580D01*
X105100594Y-82309580D02*
X105052975Y-82357200D01*
X105052975Y-82357200D02*
X104957737Y-82404819D01*
X104957737Y-82404819D02*
X104767261Y-82404819D01*
X104767261Y-82404819D02*
X104672023Y-82357200D01*
X104672023Y-82357200D02*
X104624404Y-82309580D01*
X104624404Y-82309580D02*
X104576785Y-82214342D01*
X104576785Y-82214342D02*
X104576785Y-81976247D01*
X104576785Y-81976247D02*
X104624404Y-81881009D01*
X104624404Y-81881009D02*
X104672023Y-81833390D01*
X104672023Y-81833390D02*
X104767261Y-81785771D01*
X104767261Y-81785771D02*
X104957737Y-81785771D01*
X104957737Y-81785771D02*
X105052975Y-81833390D01*
X105052975Y-81833390D02*
X105100594Y-81881009D01*
X105100594Y-81881009D02*
X105148213Y-81976247D01*
X91454819Y-85981905D02*
X90454819Y-85981905D01*
X90454819Y-85981905D02*
X90454819Y-86220000D01*
X90454819Y-86220000D02*
X90502438Y-86362857D01*
X90502438Y-86362857D02*
X90597676Y-86458095D01*
X90597676Y-86458095D02*
X90692914Y-86505714D01*
X90692914Y-86505714D02*
X90883390Y-86553333D01*
X90883390Y-86553333D02*
X91026247Y-86553333D01*
X91026247Y-86553333D02*
X91216723Y-86505714D01*
X91216723Y-86505714D02*
X91311961Y-86458095D01*
X91311961Y-86458095D02*
X91407200Y-86362857D01*
X91407200Y-86362857D02*
X91454819Y-86220000D01*
X91454819Y-86220000D02*
X91454819Y-85981905D01*
X91454819Y-87505714D02*
X91454819Y-86934286D01*
X91454819Y-87220000D02*
X90454819Y-87220000D01*
X90454819Y-87220000D02*
X90597676Y-87124762D01*
X90597676Y-87124762D02*
X90692914Y-87029524D01*
X90692914Y-87029524D02*
X90740533Y-86934286D01*
D11*
X89928809Y-80191395D02*
X89690714Y-80024729D01*
X89928809Y-79905681D02*
X89428809Y-79905681D01*
X89428809Y-79905681D02*
X89428809Y-80096157D01*
X89428809Y-80096157D02*
X89452619Y-80143776D01*
X89452619Y-80143776D02*
X89476428Y-80167586D01*
X89476428Y-80167586D02*
X89524047Y-80191395D01*
X89524047Y-80191395D02*
X89595476Y-80191395D01*
X89595476Y-80191395D02*
X89643095Y-80167586D01*
X89643095Y-80167586D02*
X89666904Y-80143776D01*
X89666904Y-80143776D02*
X89690714Y-80096157D01*
X89690714Y-80096157D02*
X89690714Y-79905681D01*
X89476428Y-80381872D02*
X89452619Y-80405681D01*
X89452619Y-80405681D02*
X89428809Y-80453300D01*
X89428809Y-80453300D02*
X89428809Y-80572348D01*
X89428809Y-80572348D02*
X89452619Y-80619967D01*
X89452619Y-80619967D02*
X89476428Y-80643776D01*
X89476428Y-80643776D02*
X89524047Y-80667586D01*
X89524047Y-80667586D02*
X89571666Y-80667586D01*
X89571666Y-80667586D02*
X89643095Y-80643776D01*
X89643095Y-80643776D02*
X89928809Y-80358062D01*
X89928809Y-80358062D02*
X89928809Y-80667586D01*
X89428809Y-80834252D02*
X89428809Y-81143776D01*
X89428809Y-81143776D02*
X89619285Y-80977109D01*
X89619285Y-80977109D02*
X89619285Y-81048538D01*
X89619285Y-81048538D02*
X89643095Y-81096157D01*
X89643095Y-81096157D02*
X89666904Y-81119966D01*
X89666904Y-81119966D02*
X89714523Y-81143776D01*
X89714523Y-81143776D02*
X89833571Y-81143776D01*
X89833571Y-81143776D02*
X89881190Y-81119966D01*
X89881190Y-81119966D02*
X89905000Y-81096157D01*
X89905000Y-81096157D02*
X89928809Y-81048538D01*
X89928809Y-81048538D02*
X89928809Y-80905681D01*
X89928809Y-80905681D02*
X89905000Y-80858062D01*
X89905000Y-80858062D02*
X89881190Y-80834252D01*
D10*
X90200057Y-91499761D02*
X90152438Y-91404523D01*
X90152438Y-91404523D02*
X90057200Y-91309285D01*
X90057200Y-91309285D02*
X89914342Y-91166428D01*
X89914342Y-91166428D02*
X89866723Y-91071190D01*
X89866723Y-91071190D02*
X89866723Y-90975952D01*
X90104819Y-91023571D02*
X90057200Y-90928333D01*
X90057200Y-90928333D02*
X89961961Y-90833095D01*
X89961961Y-90833095D02*
X89771485Y-90785476D01*
X89771485Y-90785476D02*
X89438152Y-90785476D01*
X89438152Y-90785476D02*
X89247676Y-90833095D01*
X89247676Y-90833095D02*
X89152438Y-90928333D01*
X89152438Y-90928333D02*
X89104819Y-91023571D01*
X89104819Y-91023571D02*
X89104819Y-91214047D01*
X89104819Y-91214047D02*
X89152438Y-91309285D01*
X89152438Y-91309285D02*
X89247676Y-91404523D01*
X89247676Y-91404523D02*
X89438152Y-91452142D01*
X89438152Y-91452142D02*
X89771485Y-91452142D01*
X89771485Y-91452142D02*
X89961961Y-91404523D01*
X89961961Y-91404523D02*
X90057200Y-91309285D01*
X90057200Y-91309285D02*
X90104819Y-91214047D01*
X90104819Y-91214047D02*
X90104819Y-91023571D01*
X90104819Y-92404523D02*
X90104819Y-91833095D01*
X90104819Y-92118809D02*
X89104819Y-92118809D01*
X89104819Y-92118809D02*
X89247676Y-92023571D01*
X89247676Y-92023571D02*
X89342914Y-91928333D01*
X89342914Y-91928333D02*
X89390533Y-91833095D01*
D12*
X94644285Y-93430438D02*
X94649047Y-93435200D01*
X94649047Y-93435200D02*
X94663333Y-93439961D01*
X94663333Y-93439961D02*
X94672857Y-93439961D01*
X94672857Y-93439961D02*
X94687142Y-93435200D01*
X94687142Y-93435200D02*
X94696666Y-93425676D01*
X94696666Y-93425676D02*
X94701428Y-93416152D01*
X94701428Y-93416152D02*
X94706190Y-93397104D01*
X94706190Y-93397104D02*
X94706190Y-93382819D01*
X94706190Y-93382819D02*
X94701428Y-93363771D01*
X94701428Y-93363771D02*
X94696666Y-93354247D01*
X94696666Y-93354247D02*
X94687142Y-93344723D01*
X94687142Y-93344723D02*
X94672857Y-93339961D01*
X94672857Y-93339961D02*
X94663333Y-93339961D01*
X94663333Y-93339961D02*
X94649047Y-93344723D01*
X94649047Y-93344723D02*
X94644285Y-93349485D01*
X94606190Y-93349485D02*
X94601428Y-93344723D01*
X94601428Y-93344723D02*
X94591904Y-93339961D01*
X94591904Y-93339961D02*
X94568095Y-93339961D01*
X94568095Y-93339961D02*
X94558571Y-93344723D01*
X94558571Y-93344723D02*
X94553809Y-93349485D01*
X94553809Y-93349485D02*
X94549047Y-93359009D01*
X94549047Y-93359009D02*
X94549047Y-93368533D01*
X94549047Y-93368533D02*
X94553809Y-93382819D01*
X94553809Y-93382819D02*
X94610952Y-93439961D01*
X94610952Y-93439961D02*
X94549047Y-93439961D01*
X94510952Y-93349485D02*
X94506190Y-93344723D01*
X94506190Y-93344723D02*
X94496666Y-93339961D01*
X94496666Y-93339961D02*
X94472857Y-93339961D01*
X94472857Y-93339961D02*
X94463333Y-93344723D01*
X94463333Y-93344723D02*
X94458571Y-93349485D01*
X94458571Y-93349485D02*
X94453809Y-93359009D01*
X94453809Y-93359009D02*
X94453809Y-93368533D01*
X94453809Y-93368533D02*
X94458571Y-93382819D01*
X94458571Y-93382819D02*
X94515714Y-93439961D01*
X94515714Y-93439961D02*
X94453809Y-93439961D01*
D10*
X127193332Y-80917200D02*
X127050475Y-80964819D01*
X127050475Y-80964819D02*
X126812380Y-80964819D01*
X126812380Y-80964819D02*
X126717142Y-80917200D01*
X126717142Y-80917200D02*
X126669523Y-80869580D01*
X126669523Y-80869580D02*
X126621904Y-80774342D01*
X126621904Y-80774342D02*
X126621904Y-80679104D01*
X126621904Y-80679104D02*
X126669523Y-80583866D01*
X126669523Y-80583866D02*
X126717142Y-80536247D01*
X126717142Y-80536247D02*
X126812380Y-80488628D01*
X126812380Y-80488628D02*
X127002856Y-80441009D01*
X127002856Y-80441009D02*
X127098094Y-80393390D01*
X127098094Y-80393390D02*
X127145713Y-80345771D01*
X127145713Y-80345771D02*
X127193332Y-80250533D01*
X127193332Y-80250533D02*
X127193332Y-80155295D01*
X127193332Y-80155295D02*
X127145713Y-80060057D01*
X127145713Y-80060057D02*
X127098094Y-80012438D01*
X127098094Y-80012438D02*
X127002856Y-79964819D01*
X127002856Y-79964819D02*
X126764761Y-79964819D01*
X126764761Y-79964819D02*
X126621904Y-80012438D01*
X126288570Y-79964819D02*
X126050475Y-80964819D01*
X126050475Y-80964819D02*
X125859999Y-80250533D01*
X125859999Y-80250533D02*
X125669523Y-80964819D01*
X125669523Y-80964819D02*
X125431428Y-79964819D01*
X125098094Y-80060057D02*
X125050475Y-80012438D01*
X125050475Y-80012438D02*
X124955237Y-79964819D01*
X124955237Y-79964819D02*
X124717142Y-79964819D01*
X124717142Y-79964819D02*
X124621904Y-80012438D01*
X124621904Y-80012438D02*
X124574285Y-80060057D01*
X124574285Y-80060057D02*
X124526666Y-80155295D01*
X124526666Y-80155295D02*
X124526666Y-80250533D01*
X124526666Y-80250533D02*
X124574285Y-80393390D01*
X124574285Y-80393390D02*
X125145713Y-80964819D01*
X125145713Y-80964819D02*
X124526666Y-80964819D01*
X94122857Y-82929580D02*
X94170476Y-82977200D01*
X94170476Y-82977200D02*
X94313333Y-83024819D01*
X94313333Y-83024819D02*
X94408571Y-83024819D01*
X94408571Y-83024819D02*
X94551428Y-82977200D01*
X94551428Y-82977200D02*
X94646666Y-82881961D01*
X94646666Y-82881961D02*
X94694285Y-82786723D01*
X94694285Y-82786723D02*
X94741904Y-82596247D01*
X94741904Y-82596247D02*
X94741904Y-82453390D01*
X94741904Y-82453390D02*
X94694285Y-82262914D01*
X94694285Y-82262914D02*
X94646666Y-82167676D01*
X94646666Y-82167676D02*
X94551428Y-82072438D01*
X94551428Y-82072438D02*
X94408571Y-82024819D01*
X94408571Y-82024819D02*
X94313333Y-82024819D01*
X94313333Y-82024819D02*
X94170476Y-82072438D01*
X94170476Y-82072438D02*
X94122857Y-82120057D01*
X93741904Y-82120057D02*
X93694285Y-82072438D01*
X93694285Y-82072438D02*
X93599047Y-82024819D01*
X93599047Y-82024819D02*
X93360952Y-82024819D01*
X93360952Y-82024819D02*
X93265714Y-82072438D01*
X93265714Y-82072438D02*
X93218095Y-82120057D01*
X93218095Y-82120057D02*
X93170476Y-82215295D01*
X93170476Y-82215295D02*
X93170476Y-82310533D01*
X93170476Y-82310533D02*
X93218095Y-82453390D01*
X93218095Y-82453390D02*
X93789523Y-83024819D01*
X93789523Y-83024819D02*
X93170476Y-83024819D01*
X92313333Y-82358152D02*
X92313333Y-83024819D01*
X92551428Y-81977200D02*
X92789523Y-82691485D01*
X92789523Y-82691485D02*
X92170476Y-82691485D01*
D12*
X99489285Y-94535438D02*
X99494047Y-94540200D01*
X99494047Y-94540200D02*
X99508333Y-94544961D01*
X99508333Y-94544961D02*
X99517857Y-94544961D01*
X99517857Y-94544961D02*
X99532142Y-94540200D01*
X99532142Y-94540200D02*
X99541666Y-94530676D01*
X99541666Y-94530676D02*
X99546428Y-94521152D01*
X99546428Y-94521152D02*
X99551190Y-94502104D01*
X99551190Y-94502104D02*
X99551190Y-94487819D01*
X99551190Y-94487819D02*
X99546428Y-94468771D01*
X99546428Y-94468771D02*
X99541666Y-94459247D01*
X99541666Y-94459247D02*
X99532142Y-94449723D01*
X99532142Y-94449723D02*
X99517857Y-94444961D01*
X99517857Y-94444961D02*
X99508333Y-94444961D01*
X99508333Y-94444961D02*
X99494047Y-94449723D01*
X99494047Y-94449723D02*
X99489285Y-94454485D01*
X99451190Y-94454485D02*
X99446428Y-94449723D01*
X99446428Y-94449723D02*
X99436904Y-94444961D01*
X99436904Y-94444961D02*
X99413095Y-94444961D01*
X99413095Y-94444961D02*
X99403571Y-94449723D01*
X99403571Y-94449723D02*
X99398809Y-94454485D01*
X99398809Y-94454485D02*
X99394047Y-94464009D01*
X99394047Y-94464009D02*
X99394047Y-94473533D01*
X99394047Y-94473533D02*
X99398809Y-94487819D01*
X99398809Y-94487819D02*
X99455952Y-94544961D01*
X99455952Y-94544961D02*
X99394047Y-94544961D01*
X99303571Y-94444961D02*
X99351190Y-94444961D01*
X99351190Y-94444961D02*
X99355952Y-94492580D01*
X99355952Y-94492580D02*
X99351190Y-94487819D01*
X99351190Y-94487819D02*
X99341666Y-94483057D01*
X99341666Y-94483057D02*
X99317857Y-94483057D01*
X99317857Y-94483057D02*
X99308333Y-94487819D01*
X99308333Y-94487819D02*
X99303571Y-94492580D01*
X99303571Y-94492580D02*
X99298809Y-94502104D01*
X99298809Y-94502104D02*
X99298809Y-94525914D01*
X99298809Y-94525914D02*
X99303571Y-94535438D01*
X99303571Y-94535438D02*
X99308333Y-94540200D01*
X99308333Y-94540200D02*
X99317857Y-94544961D01*
X99317857Y-94544961D02*
X99341666Y-94544961D01*
X99341666Y-94544961D02*
X99351190Y-94540200D01*
X99351190Y-94540200D02*
X99355952Y-94535438D01*
D10*
X84911904Y-77654819D02*
X84911904Y-78464342D01*
X84911904Y-78464342D02*
X84864285Y-78559580D01*
X84864285Y-78559580D02*
X84816666Y-78607200D01*
X84816666Y-78607200D02*
X84721428Y-78654819D01*
X84721428Y-78654819D02*
X84530952Y-78654819D01*
X84530952Y-78654819D02*
X84435714Y-78607200D01*
X84435714Y-78607200D02*
X84388095Y-78559580D01*
X84388095Y-78559580D02*
X84340476Y-78464342D01*
X84340476Y-78464342D02*
X84340476Y-77654819D01*
X83388095Y-77654819D02*
X83864285Y-77654819D01*
X83864285Y-77654819D02*
X83911904Y-78131009D01*
X83911904Y-78131009D02*
X83864285Y-78083390D01*
X83864285Y-78083390D02*
X83769047Y-78035771D01*
X83769047Y-78035771D02*
X83530952Y-78035771D01*
X83530952Y-78035771D02*
X83435714Y-78083390D01*
X83435714Y-78083390D02*
X83388095Y-78131009D01*
X83388095Y-78131009D02*
X83340476Y-78226247D01*
X83340476Y-78226247D02*
X83340476Y-78464342D01*
X83340476Y-78464342D02*
X83388095Y-78559580D01*
X83388095Y-78559580D02*
X83435714Y-78607200D01*
X83435714Y-78607200D02*
X83530952Y-78654819D01*
X83530952Y-78654819D02*
X83769047Y-78654819D01*
X83769047Y-78654819D02*
X83864285Y-78607200D01*
X83864285Y-78607200D02*
X83911904Y-78559580D01*
X113322080Y-70983333D02*
X113369700Y-70935714D01*
X113369700Y-70935714D02*
X113417319Y-70792857D01*
X113417319Y-70792857D02*
X113417319Y-70697619D01*
X113417319Y-70697619D02*
X113369700Y-70554762D01*
X113369700Y-70554762D02*
X113274461Y-70459524D01*
X113274461Y-70459524D02*
X113179223Y-70411905D01*
X113179223Y-70411905D02*
X112988747Y-70364286D01*
X112988747Y-70364286D02*
X112845890Y-70364286D01*
X112845890Y-70364286D02*
X112655414Y-70411905D01*
X112655414Y-70411905D02*
X112560176Y-70459524D01*
X112560176Y-70459524D02*
X112464938Y-70554762D01*
X112464938Y-70554762D02*
X112417319Y-70697619D01*
X112417319Y-70697619D02*
X112417319Y-70792857D01*
X112417319Y-70792857D02*
X112464938Y-70935714D01*
X112464938Y-70935714D02*
X112512557Y-70983333D01*
X112417319Y-71316667D02*
X112417319Y-71983333D01*
X112417319Y-71983333D02*
X113417319Y-71554762D01*
X115716666Y-63454819D02*
X116049999Y-62978628D01*
X116288094Y-63454819D02*
X116288094Y-62454819D01*
X116288094Y-62454819D02*
X115907142Y-62454819D01*
X115907142Y-62454819D02*
X115811904Y-62502438D01*
X115811904Y-62502438D02*
X115764285Y-62550057D01*
X115764285Y-62550057D02*
X115716666Y-62645295D01*
X115716666Y-62645295D02*
X115716666Y-62788152D01*
X115716666Y-62788152D02*
X115764285Y-62883390D01*
X115764285Y-62883390D02*
X115811904Y-62931009D01*
X115811904Y-62931009D02*
X115907142Y-62978628D01*
X115907142Y-62978628D02*
X116288094Y-62978628D01*
X114811904Y-62454819D02*
X115288094Y-62454819D01*
X115288094Y-62454819D02*
X115335713Y-62931009D01*
X115335713Y-62931009D02*
X115288094Y-62883390D01*
X115288094Y-62883390D02*
X115192856Y-62835771D01*
X115192856Y-62835771D02*
X114954761Y-62835771D01*
X114954761Y-62835771D02*
X114859523Y-62883390D01*
X114859523Y-62883390D02*
X114811904Y-62931009D01*
X114811904Y-62931009D02*
X114764285Y-63026247D01*
X114764285Y-63026247D02*
X114764285Y-63264342D01*
X114764285Y-63264342D02*
X114811904Y-63359580D01*
X114811904Y-63359580D02*
X114859523Y-63407200D01*
X114859523Y-63407200D02*
X114954761Y-63454819D01*
X114954761Y-63454819D02*
X115192856Y-63454819D01*
X115192856Y-63454819D02*
X115288094Y-63407200D01*
X115288094Y-63407200D02*
X115335713Y-63359580D01*
X116955357Y-93459580D02*
X117002976Y-93507200D01*
X117002976Y-93507200D02*
X117145833Y-93554819D01*
X117145833Y-93554819D02*
X117241071Y-93554819D01*
X117241071Y-93554819D02*
X117383928Y-93507200D01*
X117383928Y-93507200D02*
X117479166Y-93411961D01*
X117479166Y-93411961D02*
X117526785Y-93316723D01*
X117526785Y-93316723D02*
X117574404Y-93126247D01*
X117574404Y-93126247D02*
X117574404Y-92983390D01*
X117574404Y-92983390D02*
X117526785Y-92792914D01*
X117526785Y-92792914D02*
X117479166Y-92697676D01*
X117479166Y-92697676D02*
X117383928Y-92602438D01*
X117383928Y-92602438D02*
X117241071Y-92554819D01*
X117241071Y-92554819D02*
X117145833Y-92554819D01*
X117145833Y-92554819D02*
X117002976Y-92602438D01*
X117002976Y-92602438D02*
X116955357Y-92650057D01*
X116002976Y-93554819D02*
X116574404Y-93554819D01*
X116288690Y-93554819D02*
X116288690Y-92554819D01*
X116288690Y-92554819D02*
X116383928Y-92697676D01*
X116383928Y-92697676D02*
X116479166Y-92792914D01*
X116479166Y-92792914D02*
X116574404Y-92840533D01*
X115431547Y-92983390D02*
X115526785Y-92935771D01*
X115526785Y-92935771D02*
X115574404Y-92888152D01*
X115574404Y-92888152D02*
X115622023Y-92792914D01*
X115622023Y-92792914D02*
X115622023Y-92745295D01*
X115622023Y-92745295D02*
X115574404Y-92650057D01*
X115574404Y-92650057D02*
X115526785Y-92602438D01*
X115526785Y-92602438D02*
X115431547Y-92554819D01*
X115431547Y-92554819D02*
X115241071Y-92554819D01*
X115241071Y-92554819D02*
X115145833Y-92602438D01*
X115145833Y-92602438D02*
X115098214Y-92650057D01*
X115098214Y-92650057D02*
X115050595Y-92745295D01*
X115050595Y-92745295D02*
X115050595Y-92792914D01*
X115050595Y-92792914D02*
X115098214Y-92888152D01*
X115098214Y-92888152D02*
X115145833Y-92935771D01*
X115145833Y-92935771D02*
X115241071Y-92983390D01*
X115241071Y-92983390D02*
X115431547Y-92983390D01*
X115431547Y-92983390D02*
X115526785Y-93031009D01*
X115526785Y-93031009D02*
X115574404Y-93078628D01*
X115574404Y-93078628D02*
X115622023Y-93173866D01*
X115622023Y-93173866D02*
X115622023Y-93364342D01*
X115622023Y-93364342D02*
X115574404Y-93459580D01*
X115574404Y-93459580D02*
X115526785Y-93507200D01*
X115526785Y-93507200D02*
X115431547Y-93554819D01*
X115431547Y-93554819D02*
X115241071Y-93554819D01*
X115241071Y-93554819D02*
X115145833Y-93507200D01*
X115145833Y-93507200D02*
X115098214Y-93459580D01*
X115098214Y-93459580D02*
X115050595Y-93364342D01*
X115050595Y-93364342D02*
X115050595Y-93173866D01*
X115050595Y-93173866D02*
X115098214Y-93078628D01*
X115098214Y-93078628D02*
X115145833Y-93031009D01*
X115145833Y-93031009D02*
X115241071Y-92983390D01*
D11*
X91126190Y-74706395D02*
X91150000Y-74682586D01*
X91150000Y-74682586D02*
X91173809Y-74611157D01*
X91173809Y-74611157D02*
X91173809Y-74563538D01*
X91173809Y-74563538D02*
X91150000Y-74492110D01*
X91150000Y-74492110D02*
X91102380Y-74444491D01*
X91102380Y-74444491D02*
X91054761Y-74420681D01*
X91054761Y-74420681D02*
X90959523Y-74396872D01*
X90959523Y-74396872D02*
X90888095Y-74396872D01*
X90888095Y-74396872D02*
X90792857Y-74420681D01*
X90792857Y-74420681D02*
X90745238Y-74444491D01*
X90745238Y-74444491D02*
X90697619Y-74492110D01*
X90697619Y-74492110D02*
X90673809Y-74563538D01*
X90673809Y-74563538D02*
X90673809Y-74611157D01*
X90673809Y-74611157D02*
X90697619Y-74682586D01*
X90697619Y-74682586D02*
X90721428Y-74706395D01*
X90673809Y-74873062D02*
X90673809Y-75182586D01*
X90673809Y-75182586D02*
X90864285Y-75015919D01*
X90864285Y-75015919D02*
X90864285Y-75087348D01*
X90864285Y-75087348D02*
X90888095Y-75134967D01*
X90888095Y-75134967D02*
X90911904Y-75158776D01*
X90911904Y-75158776D02*
X90959523Y-75182586D01*
X90959523Y-75182586D02*
X91078571Y-75182586D01*
X91078571Y-75182586D02*
X91126190Y-75158776D01*
X91126190Y-75158776D02*
X91150000Y-75134967D01*
X91150000Y-75134967D02*
X91173809Y-75087348D01*
X91173809Y-75087348D02*
X91173809Y-74944491D01*
X91173809Y-74944491D02*
X91150000Y-74896872D01*
X91150000Y-74896872D02*
X91126190Y-74873062D01*
X91173809Y-75658776D02*
X91173809Y-75373062D01*
X91173809Y-75515919D02*
X90673809Y-75515919D01*
X90673809Y-75515919D02*
X90745238Y-75468300D01*
X90745238Y-75468300D02*
X90792857Y-75420681D01*
X90792857Y-75420681D02*
X90816666Y-75373062D01*
D10*
X114622080Y-86583333D02*
X114669700Y-86535714D01*
X114669700Y-86535714D02*
X114717319Y-86392857D01*
X114717319Y-86392857D02*
X114717319Y-86297619D01*
X114717319Y-86297619D02*
X114669700Y-86154762D01*
X114669700Y-86154762D02*
X114574461Y-86059524D01*
X114574461Y-86059524D02*
X114479223Y-86011905D01*
X114479223Y-86011905D02*
X114288747Y-85964286D01*
X114288747Y-85964286D02*
X114145890Y-85964286D01*
X114145890Y-85964286D02*
X113955414Y-86011905D01*
X113955414Y-86011905D02*
X113860176Y-86059524D01*
X113860176Y-86059524D02*
X113764938Y-86154762D01*
X113764938Y-86154762D02*
X113717319Y-86297619D01*
X113717319Y-86297619D02*
X113717319Y-86392857D01*
X113717319Y-86392857D02*
X113764938Y-86535714D01*
X113764938Y-86535714D02*
X113812557Y-86583333D01*
X114050652Y-87440476D02*
X114717319Y-87440476D01*
X113669700Y-87202381D02*
X114383985Y-86964286D01*
X114383985Y-86964286D02*
X114383985Y-87583333D01*
X114522080Y-70983333D02*
X114569700Y-70935714D01*
X114569700Y-70935714D02*
X114617319Y-70792857D01*
X114617319Y-70792857D02*
X114617319Y-70697619D01*
X114617319Y-70697619D02*
X114569700Y-70554762D01*
X114569700Y-70554762D02*
X114474461Y-70459524D01*
X114474461Y-70459524D02*
X114379223Y-70411905D01*
X114379223Y-70411905D02*
X114188747Y-70364286D01*
X114188747Y-70364286D02*
X114045890Y-70364286D01*
X114045890Y-70364286D02*
X113855414Y-70411905D01*
X113855414Y-70411905D02*
X113760176Y-70459524D01*
X113760176Y-70459524D02*
X113664938Y-70554762D01*
X113664938Y-70554762D02*
X113617319Y-70697619D01*
X113617319Y-70697619D02*
X113617319Y-70792857D01*
X113617319Y-70792857D02*
X113664938Y-70935714D01*
X113664938Y-70935714D02*
X113712557Y-70983333D01*
X114617319Y-71459524D02*
X114617319Y-71650000D01*
X114617319Y-71650000D02*
X114569700Y-71745238D01*
X114569700Y-71745238D02*
X114522080Y-71792857D01*
X114522080Y-71792857D02*
X114379223Y-71888095D01*
X114379223Y-71888095D02*
X114188747Y-71935714D01*
X114188747Y-71935714D02*
X113807795Y-71935714D01*
X113807795Y-71935714D02*
X113712557Y-71888095D01*
X113712557Y-71888095D02*
X113664938Y-71840476D01*
X113664938Y-71840476D02*
X113617319Y-71745238D01*
X113617319Y-71745238D02*
X113617319Y-71554762D01*
X113617319Y-71554762D02*
X113664938Y-71459524D01*
X113664938Y-71459524D02*
X113712557Y-71411905D01*
X113712557Y-71411905D02*
X113807795Y-71364286D01*
X113807795Y-71364286D02*
X114045890Y-71364286D01*
X114045890Y-71364286D02*
X114141128Y-71411905D01*
X114141128Y-71411905D02*
X114188747Y-71459524D01*
X114188747Y-71459524D02*
X114236366Y-71554762D01*
X114236366Y-71554762D02*
X114236366Y-71745238D01*
X114236366Y-71745238D02*
X114188747Y-71840476D01*
X114188747Y-71840476D02*
X114141128Y-71888095D01*
X114141128Y-71888095D02*
X114045890Y-71935714D01*
X99004819Y-85931905D02*
X98004819Y-85931905D01*
X98004819Y-85931905D02*
X98004819Y-86170000D01*
X98004819Y-86170000D02*
X98052438Y-86312857D01*
X98052438Y-86312857D02*
X98147676Y-86408095D01*
X98147676Y-86408095D02*
X98242914Y-86455714D01*
X98242914Y-86455714D02*
X98433390Y-86503333D01*
X98433390Y-86503333D02*
X98576247Y-86503333D01*
X98576247Y-86503333D02*
X98766723Y-86455714D01*
X98766723Y-86455714D02*
X98861961Y-86408095D01*
X98861961Y-86408095D02*
X98957200Y-86312857D01*
X98957200Y-86312857D02*
X99004819Y-86170000D01*
X99004819Y-86170000D02*
X99004819Y-85931905D01*
X98100057Y-86884286D02*
X98052438Y-86931905D01*
X98052438Y-86931905D02*
X98004819Y-87027143D01*
X98004819Y-87027143D02*
X98004819Y-87265238D01*
X98004819Y-87265238D02*
X98052438Y-87360476D01*
X98052438Y-87360476D02*
X98100057Y-87408095D01*
X98100057Y-87408095D02*
X98195295Y-87455714D01*
X98195295Y-87455714D02*
X98290533Y-87455714D01*
X98290533Y-87455714D02*
X98433390Y-87408095D01*
X98433390Y-87408095D02*
X99004819Y-86836667D01*
X99004819Y-86836667D02*
X99004819Y-87455714D01*
X117072080Y-71183333D02*
X117119700Y-71135714D01*
X117119700Y-71135714D02*
X117167319Y-70992857D01*
X117167319Y-70992857D02*
X117167319Y-70897619D01*
X117167319Y-70897619D02*
X117119700Y-70754762D01*
X117119700Y-70754762D02*
X117024461Y-70659524D01*
X117024461Y-70659524D02*
X116929223Y-70611905D01*
X116929223Y-70611905D02*
X116738747Y-70564286D01*
X116738747Y-70564286D02*
X116595890Y-70564286D01*
X116595890Y-70564286D02*
X116405414Y-70611905D01*
X116405414Y-70611905D02*
X116310176Y-70659524D01*
X116310176Y-70659524D02*
X116214938Y-70754762D01*
X116214938Y-70754762D02*
X116167319Y-70897619D01*
X116167319Y-70897619D02*
X116167319Y-70992857D01*
X116167319Y-70992857D02*
X116214938Y-71135714D01*
X116214938Y-71135714D02*
X116262557Y-71183333D01*
X116595890Y-71754762D02*
X116548271Y-71659524D01*
X116548271Y-71659524D02*
X116500652Y-71611905D01*
X116500652Y-71611905D02*
X116405414Y-71564286D01*
X116405414Y-71564286D02*
X116357795Y-71564286D01*
X116357795Y-71564286D02*
X116262557Y-71611905D01*
X116262557Y-71611905D02*
X116214938Y-71659524D01*
X116214938Y-71659524D02*
X116167319Y-71754762D01*
X116167319Y-71754762D02*
X116167319Y-71945238D01*
X116167319Y-71945238D02*
X116214938Y-72040476D01*
X116214938Y-72040476D02*
X116262557Y-72088095D01*
X116262557Y-72088095D02*
X116357795Y-72135714D01*
X116357795Y-72135714D02*
X116405414Y-72135714D01*
X116405414Y-72135714D02*
X116500652Y-72088095D01*
X116500652Y-72088095D02*
X116548271Y-72040476D01*
X116548271Y-72040476D02*
X116595890Y-71945238D01*
X116595890Y-71945238D02*
X116595890Y-71754762D01*
X116595890Y-71754762D02*
X116643509Y-71659524D01*
X116643509Y-71659524D02*
X116691128Y-71611905D01*
X116691128Y-71611905D02*
X116786366Y-71564286D01*
X116786366Y-71564286D02*
X116976842Y-71564286D01*
X116976842Y-71564286D02*
X117072080Y-71611905D01*
X117072080Y-71611905D02*
X117119700Y-71659524D01*
X117119700Y-71659524D02*
X117167319Y-71754762D01*
X117167319Y-71754762D02*
X117167319Y-71945238D01*
X117167319Y-71945238D02*
X117119700Y-72040476D01*
X117119700Y-72040476D02*
X117072080Y-72088095D01*
X117072080Y-72088095D02*
X116976842Y-72135714D01*
X116976842Y-72135714D02*
X116786366Y-72135714D01*
X116786366Y-72135714D02*
X116691128Y-72088095D01*
X116691128Y-72088095D02*
X116643509Y-72040476D01*
X116643509Y-72040476D02*
X116595890Y-71945238D01*
X95204819Y-85931905D02*
X94204819Y-85931905D01*
X94204819Y-85931905D02*
X94204819Y-86170000D01*
X94204819Y-86170000D02*
X94252438Y-86312857D01*
X94252438Y-86312857D02*
X94347676Y-86408095D01*
X94347676Y-86408095D02*
X94442914Y-86455714D01*
X94442914Y-86455714D02*
X94633390Y-86503333D01*
X94633390Y-86503333D02*
X94776247Y-86503333D01*
X94776247Y-86503333D02*
X94966723Y-86455714D01*
X94966723Y-86455714D02*
X95061961Y-86408095D01*
X95061961Y-86408095D02*
X95157200Y-86312857D01*
X95157200Y-86312857D02*
X95204819Y-86170000D01*
X95204819Y-86170000D02*
X95204819Y-85931905D01*
X94204819Y-86836667D02*
X94204819Y-87455714D01*
X94204819Y-87455714D02*
X94585771Y-87122381D01*
X94585771Y-87122381D02*
X94585771Y-87265238D01*
X94585771Y-87265238D02*
X94633390Y-87360476D01*
X94633390Y-87360476D02*
X94681009Y-87408095D01*
X94681009Y-87408095D02*
X94776247Y-87455714D01*
X94776247Y-87455714D02*
X95014342Y-87455714D01*
X95014342Y-87455714D02*
X95109580Y-87408095D01*
X95109580Y-87408095D02*
X95157200Y-87360476D01*
X95157200Y-87360476D02*
X95204819Y-87265238D01*
X95204819Y-87265238D02*
X95204819Y-86979524D01*
X95204819Y-86979524D02*
X95157200Y-86884286D01*
X95157200Y-86884286D02*
X95109580Y-86836667D01*
X121479166Y-80209580D02*
X121526785Y-80257200D01*
X121526785Y-80257200D02*
X121669642Y-80304819D01*
X121669642Y-80304819D02*
X121764880Y-80304819D01*
X121764880Y-80304819D02*
X121907737Y-80257200D01*
X121907737Y-80257200D02*
X122002975Y-80161961D01*
X122002975Y-80161961D02*
X122050594Y-80066723D01*
X122050594Y-80066723D02*
X122098213Y-79876247D01*
X122098213Y-79876247D02*
X122098213Y-79733390D01*
X122098213Y-79733390D02*
X122050594Y-79542914D01*
X122050594Y-79542914D02*
X122002975Y-79447676D01*
X122002975Y-79447676D02*
X121907737Y-79352438D01*
X121907737Y-79352438D02*
X121764880Y-79304819D01*
X121764880Y-79304819D02*
X121669642Y-79304819D01*
X121669642Y-79304819D02*
X121526785Y-79352438D01*
X121526785Y-79352438D02*
X121479166Y-79400057D01*
X120574404Y-79304819D02*
X121050594Y-79304819D01*
X121050594Y-79304819D02*
X121098213Y-79781009D01*
X121098213Y-79781009D02*
X121050594Y-79733390D01*
X121050594Y-79733390D02*
X120955356Y-79685771D01*
X120955356Y-79685771D02*
X120717261Y-79685771D01*
X120717261Y-79685771D02*
X120622023Y-79733390D01*
X120622023Y-79733390D02*
X120574404Y-79781009D01*
X120574404Y-79781009D02*
X120526785Y-79876247D01*
X120526785Y-79876247D02*
X120526785Y-80114342D01*
X120526785Y-80114342D02*
X120574404Y-80209580D01*
X120574404Y-80209580D02*
X120622023Y-80257200D01*
X120622023Y-80257200D02*
X120717261Y-80304819D01*
X120717261Y-80304819D02*
X120955356Y-80304819D01*
X120955356Y-80304819D02*
X121050594Y-80257200D01*
X121050594Y-80257200D02*
X121098213Y-80209580D01*
X90392857Y-82929580D02*
X90440476Y-82977200D01*
X90440476Y-82977200D02*
X90583333Y-83024819D01*
X90583333Y-83024819D02*
X90678571Y-83024819D01*
X90678571Y-83024819D02*
X90821428Y-82977200D01*
X90821428Y-82977200D02*
X90916666Y-82881961D01*
X90916666Y-82881961D02*
X90964285Y-82786723D01*
X90964285Y-82786723D02*
X91011904Y-82596247D01*
X91011904Y-82596247D02*
X91011904Y-82453390D01*
X91011904Y-82453390D02*
X90964285Y-82262914D01*
X90964285Y-82262914D02*
X90916666Y-82167676D01*
X90916666Y-82167676D02*
X90821428Y-82072438D01*
X90821428Y-82072438D02*
X90678571Y-82024819D01*
X90678571Y-82024819D02*
X90583333Y-82024819D01*
X90583333Y-82024819D02*
X90440476Y-82072438D01*
X90440476Y-82072438D02*
X90392857Y-82120057D01*
X90011904Y-82120057D02*
X89964285Y-82072438D01*
X89964285Y-82072438D02*
X89869047Y-82024819D01*
X89869047Y-82024819D02*
X89630952Y-82024819D01*
X89630952Y-82024819D02*
X89535714Y-82072438D01*
X89535714Y-82072438D02*
X89488095Y-82120057D01*
X89488095Y-82120057D02*
X89440476Y-82215295D01*
X89440476Y-82215295D02*
X89440476Y-82310533D01*
X89440476Y-82310533D02*
X89488095Y-82453390D01*
X89488095Y-82453390D02*
X90059523Y-83024819D01*
X90059523Y-83024819D02*
X89440476Y-83024819D01*
X88583333Y-82024819D02*
X88773809Y-82024819D01*
X88773809Y-82024819D02*
X88869047Y-82072438D01*
X88869047Y-82072438D02*
X88916666Y-82120057D01*
X88916666Y-82120057D02*
X89011904Y-82262914D01*
X89011904Y-82262914D02*
X89059523Y-82453390D01*
X89059523Y-82453390D02*
X89059523Y-82834342D01*
X89059523Y-82834342D02*
X89011904Y-82929580D01*
X89011904Y-82929580D02*
X88964285Y-82977200D01*
X88964285Y-82977200D02*
X88869047Y-83024819D01*
X88869047Y-83024819D02*
X88678571Y-83024819D01*
X88678571Y-83024819D02*
X88583333Y-82977200D01*
X88583333Y-82977200D02*
X88535714Y-82929580D01*
X88535714Y-82929580D02*
X88488095Y-82834342D01*
X88488095Y-82834342D02*
X88488095Y-82596247D01*
X88488095Y-82596247D02*
X88535714Y-82501009D01*
X88535714Y-82501009D02*
X88583333Y-82453390D01*
X88583333Y-82453390D02*
X88678571Y-82405771D01*
X88678571Y-82405771D02*
X88869047Y-82405771D01*
X88869047Y-82405771D02*
X88964285Y-82453390D01*
X88964285Y-82453390D02*
X89011904Y-82501009D01*
X89011904Y-82501009D02*
X89059523Y-82596247D01*
D11*
X91126190Y-80196395D02*
X91150000Y-80172586D01*
X91150000Y-80172586D02*
X91173809Y-80101157D01*
X91173809Y-80101157D02*
X91173809Y-80053538D01*
X91173809Y-80053538D02*
X91150000Y-79982110D01*
X91150000Y-79982110D02*
X91102380Y-79934491D01*
X91102380Y-79934491D02*
X91054761Y-79910681D01*
X91054761Y-79910681D02*
X90959523Y-79886872D01*
X90959523Y-79886872D02*
X90888095Y-79886872D01*
X90888095Y-79886872D02*
X90792857Y-79910681D01*
X90792857Y-79910681D02*
X90745238Y-79934491D01*
X90745238Y-79934491D02*
X90697619Y-79982110D01*
X90697619Y-79982110D02*
X90673809Y-80053538D01*
X90673809Y-80053538D02*
X90673809Y-80101157D01*
X90673809Y-80101157D02*
X90697619Y-80172586D01*
X90697619Y-80172586D02*
X90721428Y-80196395D01*
X90673809Y-80363062D02*
X90673809Y-80672586D01*
X90673809Y-80672586D02*
X90864285Y-80505919D01*
X90864285Y-80505919D02*
X90864285Y-80577348D01*
X90864285Y-80577348D02*
X90888095Y-80624967D01*
X90888095Y-80624967D02*
X90911904Y-80648776D01*
X90911904Y-80648776D02*
X90959523Y-80672586D01*
X90959523Y-80672586D02*
X91078571Y-80672586D01*
X91078571Y-80672586D02*
X91126190Y-80648776D01*
X91126190Y-80648776D02*
X91150000Y-80624967D01*
X91150000Y-80624967D02*
X91173809Y-80577348D01*
X91173809Y-80577348D02*
X91173809Y-80434491D01*
X91173809Y-80434491D02*
X91150000Y-80386872D01*
X91150000Y-80386872D02*
X91126190Y-80363062D01*
X90721428Y-80863062D02*
X90697619Y-80886871D01*
X90697619Y-80886871D02*
X90673809Y-80934490D01*
X90673809Y-80934490D02*
X90673809Y-81053538D01*
X90673809Y-81053538D02*
X90697619Y-81101157D01*
X90697619Y-81101157D02*
X90721428Y-81124966D01*
X90721428Y-81124966D02*
X90769047Y-81148776D01*
X90769047Y-81148776D02*
X90816666Y-81148776D01*
X90816666Y-81148776D02*
X90888095Y-81124966D01*
X90888095Y-81124966D02*
X91173809Y-80839252D01*
X91173809Y-80839252D02*
X91173809Y-81148776D01*
D10*
X109746666Y-61439819D02*
X110079999Y-60963628D01*
X110318094Y-61439819D02*
X110318094Y-60439819D01*
X110318094Y-60439819D02*
X109937142Y-60439819D01*
X109937142Y-60439819D02*
X109841904Y-60487438D01*
X109841904Y-60487438D02*
X109794285Y-60535057D01*
X109794285Y-60535057D02*
X109746666Y-60630295D01*
X109746666Y-60630295D02*
X109746666Y-60773152D01*
X109746666Y-60773152D02*
X109794285Y-60868390D01*
X109794285Y-60868390D02*
X109841904Y-60916009D01*
X109841904Y-60916009D02*
X109937142Y-60963628D01*
X109937142Y-60963628D02*
X110318094Y-60963628D01*
X109270475Y-61439819D02*
X109079999Y-61439819D01*
X109079999Y-61439819D02*
X108984761Y-61392200D01*
X108984761Y-61392200D02*
X108937142Y-61344580D01*
X108937142Y-61344580D02*
X108841904Y-61201723D01*
X108841904Y-61201723D02*
X108794285Y-61011247D01*
X108794285Y-61011247D02*
X108794285Y-60630295D01*
X108794285Y-60630295D02*
X108841904Y-60535057D01*
X108841904Y-60535057D02*
X108889523Y-60487438D01*
X108889523Y-60487438D02*
X108984761Y-60439819D01*
X108984761Y-60439819D02*
X109175237Y-60439819D01*
X109175237Y-60439819D02*
X109270475Y-60487438D01*
X109270475Y-60487438D02*
X109318094Y-60535057D01*
X109318094Y-60535057D02*
X109365713Y-60630295D01*
X109365713Y-60630295D02*
X109365713Y-60868390D01*
X109365713Y-60868390D02*
X109318094Y-60963628D01*
X109318094Y-60963628D02*
X109270475Y-61011247D01*
X109270475Y-61011247D02*
X109175237Y-61058866D01*
X109175237Y-61058866D02*
X108984761Y-61058866D01*
X108984761Y-61058866D02*
X108889523Y-61011247D01*
X108889523Y-61011247D02*
X108841904Y-60963628D01*
X108841904Y-60963628D02*
X108794285Y-60868390D01*
X121041128Y-89873809D02*
X121517319Y-89873809D01*
X120517319Y-89540476D02*
X121041128Y-89873809D01*
X121041128Y-89873809D02*
X120517319Y-90207142D01*
X121517319Y-91064285D02*
X121517319Y-90492857D01*
X121517319Y-90778571D02*
X120517319Y-90778571D01*
X120517319Y-90778571D02*
X120660176Y-90683333D01*
X120660176Y-90683333D02*
X120755414Y-90588095D01*
X120755414Y-90588095D02*
X120803033Y-90492857D01*
X105404819Y-71783333D02*
X104928628Y-71450000D01*
X105404819Y-71211905D02*
X104404819Y-71211905D01*
X104404819Y-71211905D02*
X104404819Y-71592857D01*
X104404819Y-71592857D02*
X104452438Y-71688095D01*
X104452438Y-71688095D02*
X104500057Y-71735714D01*
X104500057Y-71735714D02*
X104595295Y-71783333D01*
X104595295Y-71783333D02*
X104738152Y-71783333D01*
X104738152Y-71783333D02*
X104833390Y-71735714D01*
X104833390Y-71735714D02*
X104881009Y-71688095D01*
X104881009Y-71688095D02*
X104928628Y-71592857D01*
X104928628Y-71592857D02*
X104928628Y-71211905D01*
X105404819Y-72735714D02*
X105404819Y-72164286D01*
X105404819Y-72450000D02*
X104404819Y-72450000D01*
X104404819Y-72450000D02*
X104547676Y-72354762D01*
X104547676Y-72354762D02*
X104642914Y-72259524D01*
X104642914Y-72259524D02*
X104690533Y-72164286D01*
D11*
X84146428Y-82282190D02*
X84170237Y-82306000D01*
X84170237Y-82306000D02*
X84241666Y-82329809D01*
X84241666Y-82329809D02*
X84289285Y-82329809D01*
X84289285Y-82329809D02*
X84360713Y-82306000D01*
X84360713Y-82306000D02*
X84408332Y-82258380D01*
X84408332Y-82258380D02*
X84432142Y-82210761D01*
X84432142Y-82210761D02*
X84455951Y-82115523D01*
X84455951Y-82115523D02*
X84455951Y-82044095D01*
X84455951Y-82044095D02*
X84432142Y-81948857D01*
X84432142Y-81948857D02*
X84408332Y-81901238D01*
X84408332Y-81901238D02*
X84360713Y-81853619D01*
X84360713Y-81853619D02*
X84289285Y-81829809D01*
X84289285Y-81829809D02*
X84241666Y-81829809D01*
X84241666Y-81829809D02*
X84170237Y-81853619D01*
X84170237Y-81853619D02*
X84146428Y-81877428D01*
X83979761Y-81829809D02*
X83670237Y-81829809D01*
X83670237Y-81829809D02*
X83836904Y-82020285D01*
X83836904Y-82020285D02*
X83765475Y-82020285D01*
X83765475Y-82020285D02*
X83717856Y-82044095D01*
X83717856Y-82044095D02*
X83694047Y-82067904D01*
X83694047Y-82067904D02*
X83670237Y-82115523D01*
X83670237Y-82115523D02*
X83670237Y-82234571D01*
X83670237Y-82234571D02*
X83694047Y-82282190D01*
X83694047Y-82282190D02*
X83717856Y-82306000D01*
X83717856Y-82306000D02*
X83765475Y-82329809D01*
X83765475Y-82329809D02*
X83908332Y-82329809D01*
X83908332Y-82329809D02*
X83955951Y-82306000D01*
X83955951Y-82306000D02*
X83979761Y-82282190D01*
X83217857Y-81829809D02*
X83455952Y-81829809D01*
X83455952Y-81829809D02*
X83479761Y-82067904D01*
X83479761Y-82067904D02*
X83455952Y-82044095D01*
X83455952Y-82044095D02*
X83408333Y-82020285D01*
X83408333Y-82020285D02*
X83289285Y-82020285D01*
X83289285Y-82020285D02*
X83241666Y-82044095D01*
X83241666Y-82044095D02*
X83217857Y-82067904D01*
X83217857Y-82067904D02*
X83194047Y-82115523D01*
X83194047Y-82115523D02*
X83194047Y-82234571D01*
X83194047Y-82234571D02*
X83217857Y-82282190D01*
X83217857Y-82282190D02*
X83241666Y-82306000D01*
X83241666Y-82306000D02*
X83289285Y-82329809D01*
X83289285Y-82329809D02*
X83408333Y-82329809D01*
X83408333Y-82329809D02*
X83455952Y-82306000D01*
X83455952Y-82306000D02*
X83479761Y-82282190D01*
D10*
X115642857Y-66004819D02*
X115976190Y-65528628D01*
X116214285Y-66004819D02*
X116214285Y-65004819D01*
X116214285Y-65004819D02*
X115833333Y-65004819D01*
X115833333Y-65004819D02*
X115738095Y-65052438D01*
X115738095Y-65052438D02*
X115690476Y-65100057D01*
X115690476Y-65100057D02*
X115642857Y-65195295D01*
X115642857Y-65195295D02*
X115642857Y-65338152D01*
X115642857Y-65338152D02*
X115690476Y-65433390D01*
X115690476Y-65433390D02*
X115738095Y-65481009D01*
X115738095Y-65481009D02*
X115833333Y-65528628D01*
X115833333Y-65528628D02*
X116214285Y-65528628D01*
X115261904Y-65100057D02*
X115214285Y-65052438D01*
X115214285Y-65052438D02*
X115119047Y-65004819D01*
X115119047Y-65004819D02*
X114880952Y-65004819D01*
X114880952Y-65004819D02*
X114785714Y-65052438D01*
X114785714Y-65052438D02*
X114738095Y-65100057D01*
X114738095Y-65100057D02*
X114690476Y-65195295D01*
X114690476Y-65195295D02*
X114690476Y-65290533D01*
X114690476Y-65290533D02*
X114738095Y-65433390D01*
X114738095Y-65433390D02*
X115309523Y-66004819D01*
X115309523Y-66004819D02*
X114690476Y-66004819D01*
X114214285Y-66004819D02*
X114023809Y-66004819D01*
X114023809Y-66004819D02*
X113928571Y-65957200D01*
X113928571Y-65957200D02*
X113880952Y-65909580D01*
X113880952Y-65909580D02*
X113785714Y-65766723D01*
X113785714Y-65766723D02*
X113738095Y-65576247D01*
X113738095Y-65576247D02*
X113738095Y-65195295D01*
X113738095Y-65195295D02*
X113785714Y-65100057D01*
X113785714Y-65100057D02*
X113833333Y-65052438D01*
X113833333Y-65052438D02*
X113928571Y-65004819D01*
X113928571Y-65004819D02*
X114119047Y-65004819D01*
X114119047Y-65004819D02*
X114214285Y-65052438D01*
X114214285Y-65052438D02*
X114261904Y-65100057D01*
X114261904Y-65100057D02*
X114309523Y-65195295D01*
X114309523Y-65195295D02*
X114309523Y-65433390D01*
X114309523Y-65433390D02*
X114261904Y-65528628D01*
X114261904Y-65528628D02*
X114214285Y-65576247D01*
X114214285Y-65576247D02*
X114119047Y-65623866D01*
X114119047Y-65623866D02*
X113928571Y-65623866D01*
X113928571Y-65623866D02*
X113833333Y-65576247D01*
X113833333Y-65576247D02*
X113785714Y-65528628D01*
X113785714Y-65528628D02*
X113738095Y-65433390D01*
X80833333Y-55954819D02*
X80833333Y-56669104D01*
X80833333Y-56669104D02*
X80880952Y-56811961D01*
X80880952Y-56811961D02*
X80976190Y-56907200D01*
X80976190Y-56907200D02*
X81119047Y-56954819D01*
X81119047Y-56954819D02*
X81214285Y-56954819D01*
X80404761Y-56050057D02*
X80357142Y-56002438D01*
X80357142Y-56002438D02*
X80261904Y-55954819D01*
X80261904Y-55954819D02*
X80023809Y-55954819D01*
X80023809Y-55954819D02*
X79928571Y-56002438D01*
X79928571Y-56002438D02*
X79880952Y-56050057D01*
X79880952Y-56050057D02*
X79833333Y-56145295D01*
X79833333Y-56145295D02*
X79833333Y-56240533D01*
X79833333Y-56240533D02*
X79880952Y-56383390D01*
X79880952Y-56383390D02*
X80452380Y-56954819D01*
X80452380Y-56954819D02*
X79833333Y-56954819D01*
X127213332Y-73357200D02*
X127070475Y-73404819D01*
X127070475Y-73404819D02*
X126832380Y-73404819D01*
X126832380Y-73404819D02*
X126737142Y-73357200D01*
X126737142Y-73357200D02*
X126689523Y-73309580D01*
X126689523Y-73309580D02*
X126641904Y-73214342D01*
X126641904Y-73214342D02*
X126641904Y-73119104D01*
X126641904Y-73119104D02*
X126689523Y-73023866D01*
X126689523Y-73023866D02*
X126737142Y-72976247D01*
X126737142Y-72976247D02*
X126832380Y-72928628D01*
X126832380Y-72928628D02*
X127022856Y-72881009D01*
X127022856Y-72881009D02*
X127118094Y-72833390D01*
X127118094Y-72833390D02*
X127165713Y-72785771D01*
X127165713Y-72785771D02*
X127213332Y-72690533D01*
X127213332Y-72690533D02*
X127213332Y-72595295D01*
X127213332Y-72595295D02*
X127165713Y-72500057D01*
X127165713Y-72500057D02*
X127118094Y-72452438D01*
X127118094Y-72452438D02*
X127022856Y-72404819D01*
X127022856Y-72404819D02*
X126784761Y-72404819D01*
X126784761Y-72404819D02*
X126641904Y-72452438D01*
X126308570Y-72404819D02*
X126070475Y-73404819D01*
X126070475Y-73404819D02*
X125879999Y-72690533D01*
X125879999Y-72690533D02*
X125689523Y-73404819D01*
X125689523Y-73404819D02*
X125451428Y-72404819D01*
X124546666Y-73404819D02*
X125118094Y-73404819D01*
X124832380Y-73404819D02*
X124832380Y-72404819D01*
X124832380Y-72404819D02*
X124927618Y-72547676D01*
X124927618Y-72547676D02*
X125022856Y-72642914D01*
X125022856Y-72642914D02*
X125118094Y-72690533D01*
X90361904Y-97804819D02*
X90361904Y-98614342D01*
X90361904Y-98614342D02*
X90314285Y-98709580D01*
X90314285Y-98709580D02*
X90266666Y-98757200D01*
X90266666Y-98757200D02*
X90171428Y-98804819D01*
X90171428Y-98804819D02*
X89980952Y-98804819D01*
X89980952Y-98804819D02*
X89885714Y-98757200D01*
X89885714Y-98757200D02*
X89838095Y-98709580D01*
X89838095Y-98709580D02*
X89790476Y-98614342D01*
X89790476Y-98614342D02*
X89790476Y-97804819D01*
X89361904Y-97900057D02*
X89314285Y-97852438D01*
X89314285Y-97852438D02*
X89219047Y-97804819D01*
X89219047Y-97804819D02*
X88980952Y-97804819D01*
X88980952Y-97804819D02*
X88885714Y-97852438D01*
X88885714Y-97852438D02*
X88838095Y-97900057D01*
X88838095Y-97900057D02*
X88790476Y-97995295D01*
X88790476Y-97995295D02*
X88790476Y-98090533D01*
X88790476Y-98090533D02*
X88838095Y-98233390D01*
X88838095Y-98233390D02*
X89409523Y-98804819D01*
X89409523Y-98804819D02*
X88790476Y-98804819D01*
X108252857Y-74097080D02*
X108300476Y-74144700D01*
X108300476Y-74144700D02*
X108443333Y-74192319D01*
X108443333Y-74192319D02*
X108538571Y-74192319D01*
X108538571Y-74192319D02*
X108681428Y-74144700D01*
X108681428Y-74144700D02*
X108776666Y-74049461D01*
X108776666Y-74049461D02*
X108824285Y-73954223D01*
X108824285Y-73954223D02*
X108871904Y-73763747D01*
X108871904Y-73763747D02*
X108871904Y-73620890D01*
X108871904Y-73620890D02*
X108824285Y-73430414D01*
X108824285Y-73430414D02*
X108776666Y-73335176D01*
X108776666Y-73335176D02*
X108681428Y-73239938D01*
X108681428Y-73239938D02*
X108538571Y-73192319D01*
X108538571Y-73192319D02*
X108443333Y-73192319D01*
X108443333Y-73192319D02*
X108300476Y-73239938D01*
X108300476Y-73239938D02*
X108252857Y-73287557D01*
X107300476Y-74192319D02*
X107871904Y-74192319D01*
X107586190Y-74192319D02*
X107586190Y-73192319D01*
X107586190Y-73192319D02*
X107681428Y-73335176D01*
X107681428Y-73335176D02*
X107776666Y-73430414D01*
X107776666Y-73430414D02*
X107871904Y-73478033D01*
X106443333Y-73192319D02*
X106633809Y-73192319D01*
X106633809Y-73192319D02*
X106729047Y-73239938D01*
X106729047Y-73239938D02*
X106776666Y-73287557D01*
X106776666Y-73287557D02*
X106871904Y-73430414D01*
X106871904Y-73430414D02*
X106919523Y-73620890D01*
X106919523Y-73620890D02*
X106919523Y-74001842D01*
X106919523Y-74001842D02*
X106871904Y-74097080D01*
X106871904Y-74097080D02*
X106824285Y-74144700D01*
X106824285Y-74144700D02*
X106729047Y-74192319D01*
X106729047Y-74192319D02*
X106538571Y-74192319D01*
X106538571Y-74192319D02*
X106443333Y-74144700D01*
X106443333Y-74144700D02*
X106395714Y-74097080D01*
X106395714Y-74097080D02*
X106348095Y-74001842D01*
X106348095Y-74001842D02*
X106348095Y-73763747D01*
X106348095Y-73763747D02*
X106395714Y-73668509D01*
X106395714Y-73668509D02*
X106443333Y-73620890D01*
X106443333Y-73620890D02*
X106538571Y-73573271D01*
X106538571Y-73573271D02*
X106729047Y-73573271D01*
X106729047Y-73573271D02*
X106824285Y-73620890D01*
X106824285Y-73620890D02*
X106871904Y-73668509D01*
X106871904Y-73668509D02*
X106919523Y-73763747D01*
D12*
X92714285Y-94530438D02*
X92719047Y-94535200D01*
X92719047Y-94535200D02*
X92733333Y-94539961D01*
X92733333Y-94539961D02*
X92742857Y-94539961D01*
X92742857Y-94539961D02*
X92757142Y-94535200D01*
X92757142Y-94535200D02*
X92766666Y-94525676D01*
X92766666Y-94525676D02*
X92771428Y-94516152D01*
X92771428Y-94516152D02*
X92776190Y-94497104D01*
X92776190Y-94497104D02*
X92776190Y-94482819D01*
X92776190Y-94482819D02*
X92771428Y-94463771D01*
X92771428Y-94463771D02*
X92766666Y-94454247D01*
X92766666Y-94454247D02*
X92757142Y-94444723D01*
X92757142Y-94444723D02*
X92742857Y-94439961D01*
X92742857Y-94439961D02*
X92733333Y-94439961D01*
X92733333Y-94439961D02*
X92719047Y-94444723D01*
X92719047Y-94444723D02*
X92714285Y-94449485D01*
X92676190Y-94449485D02*
X92671428Y-94444723D01*
X92671428Y-94444723D02*
X92661904Y-94439961D01*
X92661904Y-94439961D02*
X92638095Y-94439961D01*
X92638095Y-94439961D02*
X92628571Y-94444723D01*
X92628571Y-94444723D02*
X92623809Y-94449485D01*
X92623809Y-94449485D02*
X92619047Y-94459009D01*
X92619047Y-94459009D02*
X92619047Y-94468533D01*
X92619047Y-94468533D02*
X92623809Y-94482819D01*
X92623809Y-94482819D02*
X92680952Y-94539961D01*
X92680952Y-94539961D02*
X92619047Y-94539961D01*
X92585714Y-94439961D02*
X92519047Y-94439961D01*
X92519047Y-94439961D02*
X92561904Y-94539961D01*
D11*
X80174809Y-74883571D02*
X79936714Y-74716905D01*
X80174809Y-74597857D02*
X79674809Y-74597857D01*
X79674809Y-74597857D02*
X79674809Y-74788333D01*
X79674809Y-74788333D02*
X79698619Y-74835952D01*
X79698619Y-74835952D02*
X79722428Y-74859762D01*
X79722428Y-74859762D02*
X79770047Y-74883571D01*
X79770047Y-74883571D02*
X79841476Y-74883571D01*
X79841476Y-74883571D02*
X79889095Y-74859762D01*
X79889095Y-74859762D02*
X79912904Y-74835952D01*
X79912904Y-74835952D02*
X79936714Y-74788333D01*
X79936714Y-74788333D02*
X79936714Y-74597857D01*
X79722428Y-75074048D02*
X79698619Y-75097857D01*
X79698619Y-75097857D02*
X79674809Y-75145476D01*
X79674809Y-75145476D02*
X79674809Y-75264524D01*
X79674809Y-75264524D02*
X79698619Y-75312143D01*
X79698619Y-75312143D02*
X79722428Y-75335952D01*
X79722428Y-75335952D02*
X79770047Y-75359762D01*
X79770047Y-75359762D02*
X79817666Y-75359762D01*
X79817666Y-75359762D02*
X79889095Y-75335952D01*
X79889095Y-75335952D02*
X80174809Y-75050238D01*
X80174809Y-75050238D02*
X80174809Y-75359762D01*
X79674809Y-75526428D02*
X79674809Y-75859761D01*
X79674809Y-75859761D02*
X80174809Y-75645476D01*
D10*
X105279166Y-75909580D02*
X105326785Y-75957200D01*
X105326785Y-75957200D02*
X105469642Y-76004819D01*
X105469642Y-76004819D02*
X105564880Y-76004819D01*
X105564880Y-76004819D02*
X105707737Y-75957200D01*
X105707737Y-75957200D02*
X105802975Y-75861961D01*
X105802975Y-75861961D02*
X105850594Y-75766723D01*
X105850594Y-75766723D02*
X105898213Y-75576247D01*
X105898213Y-75576247D02*
X105898213Y-75433390D01*
X105898213Y-75433390D02*
X105850594Y-75242914D01*
X105850594Y-75242914D02*
X105802975Y-75147676D01*
X105802975Y-75147676D02*
X105707737Y-75052438D01*
X105707737Y-75052438D02*
X105564880Y-75004819D01*
X105564880Y-75004819D02*
X105469642Y-75004819D01*
X105469642Y-75004819D02*
X105326785Y-75052438D01*
X105326785Y-75052438D02*
X105279166Y-75100057D01*
X104898213Y-75100057D02*
X104850594Y-75052438D01*
X104850594Y-75052438D02*
X104755356Y-75004819D01*
X104755356Y-75004819D02*
X104517261Y-75004819D01*
X104517261Y-75004819D02*
X104422023Y-75052438D01*
X104422023Y-75052438D02*
X104374404Y-75100057D01*
X104374404Y-75100057D02*
X104326785Y-75195295D01*
X104326785Y-75195295D02*
X104326785Y-75290533D01*
X104326785Y-75290533D02*
X104374404Y-75433390D01*
X104374404Y-75433390D02*
X104945832Y-76004819D01*
X104945832Y-76004819D02*
X104326785Y-76004819D01*
X116955357Y-87909580D02*
X117002976Y-87957200D01*
X117002976Y-87957200D02*
X117145833Y-88004819D01*
X117145833Y-88004819D02*
X117241071Y-88004819D01*
X117241071Y-88004819D02*
X117383928Y-87957200D01*
X117383928Y-87957200D02*
X117479166Y-87861961D01*
X117479166Y-87861961D02*
X117526785Y-87766723D01*
X117526785Y-87766723D02*
X117574404Y-87576247D01*
X117574404Y-87576247D02*
X117574404Y-87433390D01*
X117574404Y-87433390D02*
X117526785Y-87242914D01*
X117526785Y-87242914D02*
X117479166Y-87147676D01*
X117479166Y-87147676D02*
X117383928Y-87052438D01*
X117383928Y-87052438D02*
X117241071Y-87004819D01*
X117241071Y-87004819D02*
X117145833Y-87004819D01*
X117145833Y-87004819D02*
X117002976Y-87052438D01*
X117002976Y-87052438D02*
X116955357Y-87100057D01*
X116002976Y-88004819D02*
X116574404Y-88004819D01*
X116288690Y-88004819D02*
X116288690Y-87004819D01*
X116288690Y-87004819D02*
X116383928Y-87147676D01*
X116383928Y-87147676D02*
X116479166Y-87242914D01*
X116479166Y-87242914D02*
X116574404Y-87290533D01*
X115669642Y-87004819D02*
X115002976Y-87004819D01*
X115002976Y-87004819D02*
X115431547Y-88004819D01*
X99033333Y-70804819D02*
X99033333Y-71519104D01*
X99033333Y-71519104D02*
X99080952Y-71661961D01*
X99080952Y-71661961D02*
X99176190Y-71757200D01*
X99176190Y-71757200D02*
X99319047Y-71804819D01*
X99319047Y-71804819D02*
X99414285Y-71804819D01*
X98033333Y-71804819D02*
X98604761Y-71804819D01*
X98319047Y-71804819D02*
X98319047Y-70804819D01*
X98319047Y-70804819D02*
X98414285Y-70947676D01*
X98414285Y-70947676D02*
X98509523Y-71042914D01*
X98509523Y-71042914D02*
X98604761Y-71090533D01*
X105789580Y-73563333D02*
X105837200Y-73515714D01*
X105837200Y-73515714D02*
X105884819Y-73372857D01*
X105884819Y-73372857D02*
X105884819Y-73277619D01*
X105884819Y-73277619D02*
X105837200Y-73134762D01*
X105837200Y-73134762D02*
X105741961Y-73039524D01*
X105741961Y-73039524D02*
X105646723Y-72991905D01*
X105646723Y-72991905D02*
X105456247Y-72944286D01*
X105456247Y-72944286D02*
X105313390Y-72944286D01*
X105313390Y-72944286D02*
X105122914Y-72991905D01*
X105122914Y-72991905D02*
X105027676Y-73039524D01*
X105027676Y-73039524D02*
X104932438Y-73134762D01*
X104932438Y-73134762D02*
X104884819Y-73277619D01*
X104884819Y-73277619D02*
X104884819Y-73372857D01*
X104884819Y-73372857D02*
X104932438Y-73515714D01*
X104932438Y-73515714D02*
X104980057Y-73563333D01*
X104884819Y-73896667D02*
X104884819Y-74515714D01*
X104884819Y-74515714D02*
X105265771Y-74182381D01*
X105265771Y-74182381D02*
X105265771Y-74325238D01*
X105265771Y-74325238D02*
X105313390Y-74420476D01*
X105313390Y-74420476D02*
X105361009Y-74468095D01*
X105361009Y-74468095D02*
X105456247Y-74515714D01*
X105456247Y-74515714D02*
X105694342Y-74515714D01*
X105694342Y-74515714D02*
X105789580Y-74468095D01*
X105789580Y-74468095D02*
X105837200Y-74420476D01*
X105837200Y-74420476D02*
X105884819Y-74325238D01*
X105884819Y-74325238D02*
X105884819Y-74039524D01*
X105884819Y-74039524D02*
X105837200Y-73944286D01*
X105837200Y-73944286D02*
X105789580Y-73896667D01*
X115872080Y-70107142D02*
X115919700Y-70059523D01*
X115919700Y-70059523D02*
X115967319Y-69916666D01*
X115967319Y-69916666D02*
X115967319Y-69821428D01*
X115967319Y-69821428D02*
X115919700Y-69678571D01*
X115919700Y-69678571D02*
X115824461Y-69583333D01*
X115824461Y-69583333D02*
X115729223Y-69535714D01*
X115729223Y-69535714D02*
X115538747Y-69488095D01*
X115538747Y-69488095D02*
X115395890Y-69488095D01*
X115395890Y-69488095D02*
X115205414Y-69535714D01*
X115205414Y-69535714D02*
X115110176Y-69583333D01*
X115110176Y-69583333D02*
X115014938Y-69678571D01*
X115014938Y-69678571D02*
X114967319Y-69821428D01*
X114967319Y-69821428D02*
X114967319Y-69916666D01*
X114967319Y-69916666D02*
X115014938Y-70059523D01*
X115014938Y-70059523D02*
X115062557Y-70107142D01*
X115967319Y-71059523D02*
X115967319Y-70488095D01*
X115967319Y-70773809D02*
X114967319Y-70773809D01*
X114967319Y-70773809D02*
X115110176Y-70678571D01*
X115110176Y-70678571D02*
X115205414Y-70583333D01*
X115205414Y-70583333D02*
X115253033Y-70488095D01*
X114967319Y-71678571D02*
X114967319Y-71773809D01*
X114967319Y-71773809D02*
X115014938Y-71869047D01*
X115014938Y-71869047D02*
X115062557Y-71916666D01*
X115062557Y-71916666D02*
X115157795Y-71964285D01*
X115157795Y-71964285D02*
X115348271Y-72011904D01*
X115348271Y-72011904D02*
X115586366Y-72011904D01*
X115586366Y-72011904D02*
X115776842Y-71964285D01*
X115776842Y-71964285D02*
X115872080Y-71916666D01*
X115872080Y-71916666D02*
X115919700Y-71869047D01*
X115919700Y-71869047D02*
X115967319Y-71773809D01*
X115967319Y-71773809D02*
X115967319Y-71678571D01*
X115967319Y-71678571D02*
X115919700Y-71583333D01*
X115919700Y-71583333D02*
X115872080Y-71535714D01*
X115872080Y-71535714D02*
X115776842Y-71488095D01*
X115776842Y-71488095D02*
X115586366Y-71440476D01*
X115586366Y-71440476D02*
X115348271Y-71440476D01*
X115348271Y-71440476D02*
X115157795Y-71488095D01*
X115157795Y-71488095D02*
X115062557Y-71535714D01*
X115062557Y-71535714D02*
X115014938Y-71583333D01*
X115014938Y-71583333D02*
X114967319Y-71678571D01*
X123256666Y-85474819D02*
X123589999Y-84998628D01*
X123828094Y-85474819D02*
X123828094Y-84474819D01*
X123828094Y-84474819D02*
X123447142Y-84474819D01*
X123447142Y-84474819D02*
X123351904Y-84522438D01*
X123351904Y-84522438D02*
X123304285Y-84570057D01*
X123304285Y-84570057D02*
X123256666Y-84665295D01*
X123256666Y-84665295D02*
X123256666Y-84808152D01*
X123256666Y-84808152D02*
X123304285Y-84903390D01*
X123304285Y-84903390D02*
X123351904Y-84951009D01*
X123351904Y-84951009D02*
X123447142Y-84998628D01*
X123447142Y-84998628D02*
X123828094Y-84998628D01*
X122399523Y-84808152D02*
X122399523Y-85474819D01*
X122637618Y-84427200D02*
X122875713Y-85141485D01*
X122875713Y-85141485D02*
X122256666Y-85141485D01*
X87304819Y-89803333D02*
X87304819Y-89327143D01*
X87304819Y-89327143D02*
X86304819Y-89327143D01*
X86400057Y-90089048D02*
X86352438Y-90136667D01*
X86352438Y-90136667D02*
X86304819Y-90231905D01*
X86304819Y-90231905D02*
X86304819Y-90470000D01*
X86304819Y-90470000D02*
X86352438Y-90565238D01*
X86352438Y-90565238D02*
X86400057Y-90612857D01*
X86400057Y-90612857D02*
X86495295Y-90660476D01*
X86495295Y-90660476D02*
X86590533Y-90660476D01*
X86590533Y-90660476D02*
X86733390Y-90612857D01*
X86733390Y-90612857D02*
X87304819Y-90041429D01*
X87304819Y-90041429D02*
X87304819Y-90660476D01*
D11*
X98557190Y-80188571D02*
X98581000Y-80164762D01*
X98581000Y-80164762D02*
X98604809Y-80093333D01*
X98604809Y-80093333D02*
X98604809Y-80045714D01*
X98604809Y-80045714D02*
X98581000Y-79974286D01*
X98581000Y-79974286D02*
X98533380Y-79926667D01*
X98533380Y-79926667D02*
X98485761Y-79902857D01*
X98485761Y-79902857D02*
X98390523Y-79879048D01*
X98390523Y-79879048D02*
X98319095Y-79879048D01*
X98319095Y-79879048D02*
X98223857Y-79902857D01*
X98223857Y-79902857D02*
X98176238Y-79926667D01*
X98176238Y-79926667D02*
X98128619Y-79974286D01*
X98128619Y-79974286D02*
X98104809Y-80045714D01*
X98104809Y-80045714D02*
X98104809Y-80093333D01*
X98104809Y-80093333D02*
X98128619Y-80164762D01*
X98128619Y-80164762D02*
X98152428Y-80188571D01*
X98104809Y-80355238D02*
X98104809Y-80664762D01*
X98104809Y-80664762D02*
X98295285Y-80498095D01*
X98295285Y-80498095D02*
X98295285Y-80569524D01*
X98295285Y-80569524D02*
X98319095Y-80617143D01*
X98319095Y-80617143D02*
X98342904Y-80640952D01*
X98342904Y-80640952D02*
X98390523Y-80664762D01*
X98390523Y-80664762D02*
X98509571Y-80664762D01*
X98509571Y-80664762D02*
X98557190Y-80640952D01*
X98557190Y-80640952D02*
X98581000Y-80617143D01*
X98581000Y-80617143D02*
X98604809Y-80569524D01*
X98604809Y-80569524D02*
X98604809Y-80426667D01*
X98604809Y-80426667D02*
X98581000Y-80379048D01*
X98581000Y-80379048D02*
X98557190Y-80355238D01*
X98104809Y-80974285D02*
X98104809Y-81021904D01*
X98104809Y-81021904D02*
X98128619Y-81069523D01*
X98128619Y-81069523D02*
X98152428Y-81093333D01*
X98152428Y-81093333D02*
X98200047Y-81117142D01*
X98200047Y-81117142D02*
X98295285Y-81140952D01*
X98295285Y-81140952D02*
X98414333Y-81140952D01*
X98414333Y-81140952D02*
X98509571Y-81117142D01*
X98509571Y-81117142D02*
X98557190Y-81093333D01*
X98557190Y-81093333D02*
X98581000Y-81069523D01*
X98581000Y-81069523D02*
X98604809Y-81021904D01*
X98604809Y-81021904D02*
X98604809Y-80974285D01*
X98604809Y-80974285D02*
X98581000Y-80926666D01*
X98581000Y-80926666D02*
X98557190Y-80902857D01*
X98557190Y-80902857D02*
X98509571Y-80879047D01*
X98509571Y-80879047D02*
X98414333Y-80855238D01*
X98414333Y-80855238D02*
X98295285Y-80855238D01*
X98295285Y-80855238D02*
X98200047Y-80879047D01*
X98200047Y-80879047D02*
X98152428Y-80902857D01*
X98152428Y-80902857D02*
X98128619Y-80926666D01*
X98128619Y-80926666D02*
X98104809Y-80974285D01*
D12*
X95985438Y-93980714D02*
X95990200Y-93975952D01*
X95990200Y-93975952D02*
X95994961Y-93961666D01*
X95994961Y-93961666D02*
X95994961Y-93952142D01*
X95994961Y-93952142D02*
X95990200Y-93937857D01*
X95990200Y-93937857D02*
X95980676Y-93928333D01*
X95980676Y-93928333D02*
X95971152Y-93923571D01*
X95971152Y-93923571D02*
X95952104Y-93918809D01*
X95952104Y-93918809D02*
X95937819Y-93918809D01*
X95937819Y-93918809D02*
X95918771Y-93923571D01*
X95918771Y-93923571D02*
X95909247Y-93928333D01*
X95909247Y-93928333D02*
X95899723Y-93937857D01*
X95899723Y-93937857D02*
X95894961Y-93952142D01*
X95894961Y-93952142D02*
X95894961Y-93961666D01*
X95894961Y-93961666D02*
X95899723Y-93975952D01*
X95899723Y-93975952D02*
X95904485Y-93980714D01*
X95904485Y-94018809D02*
X95899723Y-94023571D01*
X95899723Y-94023571D02*
X95894961Y-94033095D01*
X95894961Y-94033095D02*
X95894961Y-94056904D01*
X95894961Y-94056904D02*
X95899723Y-94066428D01*
X95899723Y-94066428D02*
X95904485Y-94071190D01*
X95904485Y-94071190D02*
X95914009Y-94075952D01*
X95914009Y-94075952D02*
X95923533Y-94075952D01*
X95923533Y-94075952D02*
X95937819Y-94071190D01*
X95937819Y-94071190D02*
X95994961Y-94014047D01*
X95994961Y-94014047D02*
X95994961Y-94075952D01*
X95994961Y-94171190D02*
X95994961Y-94114047D01*
X95994961Y-94142619D02*
X95894961Y-94142619D01*
X95894961Y-94142619D02*
X95909247Y-94133095D01*
X95909247Y-94133095D02*
X95918771Y-94123571D01*
X95918771Y-94123571D02*
X95923533Y-94114047D01*
D10*
X109772857Y-64999819D02*
X110106190Y-64523628D01*
X110344285Y-64999819D02*
X110344285Y-63999819D01*
X110344285Y-63999819D02*
X109963333Y-63999819D01*
X109963333Y-63999819D02*
X109868095Y-64047438D01*
X109868095Y-64047438D02*
X109820476Y-64095057D01*
X109820476Y-64095057D02*
X109772857Y-64190295D01*
X109772857Y-64190295D02*
X109772857Y-64333152D01*
X109772857Y-64333152D02*
X109820476Y-64428390D01*
X109820476Y-64428390D02*
X109868095Y-64476009D01*
X109868095Y-64476009D02*
X109963333Y-64523628D01*
X109963333Y-64523628D02*
X110344285Y-64523628D01*
X108820476Y-64999819D02*
X109391904Y-64999819D01*
X109106190Y-64999819D02*
X109106190Y-63999819D01*
X109106190Y-63999819D02*
X109201428Y-64142676D01*
X109201428Y-64142676D02*
X109296666Y-64237914D01*
X109296666Y-64237914D02*
X109391904Y-64285533D01*
X107868095Y-64999819D02*
X108439523Y-64999819D01*
X108153809Y-64999819D02*
X108153809Y-63999819D01*
X108153809Y-63999819D02*
X108249047Y-64142676D01*
X108249047Y-64142676D02*
X108344285Y-64237914D01*
X108344285Y-64237914D02*
X108439523Y-64285533D01*
D13*
%TO.C,R3*%
X115882500Y-90856359D02*
X115882500Y-91163641D01*
X116642500Y-90856359D02*
X116642500Y-91163641D01*
%TO.C,C13*%
X107220336Y-76590000D02*
X107004664Y-76590000D01*
X107220336Y-77310000D02*
X107004664Y-77310000D01*
%TO.C,C29*%
X98917836Y-76740000D02*
X98702164Y-76740000D01*
X98917836Y-77460000D02*
X98702164Y-77460000D01*
%TO.C,R8*%
X94806359Y-91715000D02*
X95113641Y-91715000D01*
X94806359Y-92475000D02*
X95113641Y-92475000D01*
%TO.C,U1*%
X109065000Y-74840000D02*
X109065000Y-75290000D01*
X109065000Y-82060000D02*
X109065000Y-81610000D01*
X109515000Y-74840000D02*
X109065000Y-74840000D01*
X109515000Y-82060000D02*
X109065000Y-82060000D01*
X115835000Y-74840000D02*
X116285000Y-74840000D01*
X115835000Y-82060000D02*
X116285000Y-82060000D01*
X116285000Y-82060000D02*
X116285000Y-81610000D01*
%TO.C,J3*%
X121645000Y-58270000D02*
X121940000Y-58270000D01*
X121645000Y-68230000D02*
X121645000Y-58270000D01*
X121940000Y-68230000D02*
X121645000Y-68230000D01*
X125040000Y-58270000D02*
X124410000Y-58270000D01*
X125040000Y-68230000D02*
X124410000Y-68230000D01*
%TO.C,R24*%
X79570000Y-79296359D02*
X79570000Y-79603641D01*
X80330000Y-79296359D02*
X80330000Y-79603641D01*
%TO.C,C34*%
X86315000Y-81967164D02*
X86315000Y-82182836D01*
X87035000Y-81967164D02*
X87035000Y-82182836D01*
%TO.C,R12*%
X106686359Y-65945000D02*
X106993641Y-65945000D01*
X106686359Y-66705000D02*
X106993641Y-66705000D01*
%TO.C,R10*%
X106686359Y-62395000D02*
X106993641Y-62395000D01*
X106686359Y-63155000D02*
X106993641Y-63155000D01*
%TO.C,C28*%
X94587836Y-89235000D02*
X94372164Y-89235000D01*
X94587836Y-89955000D02*
X94372164Y-89955000D01*
%TO.C,C19*%
X91542164Y-93085000D02*
X91757836Y-93085000D01*
X91542164Y-93805000D02*
X91757836Y-93805000D01*
%TO.C,R28*%
X117603641Y-61370000D02*
X117296359Y-61370000D01*
X117603641Y-62130000D02*
X117296359Y-62130000D01*
%TO.C,C36*%
X86540000Y-70038748D02*
X86540000Y-71461252D01*
X88360000Y-70038748D02*
X88360000Y-71461252D01*
%TO.C,L1*%
D14*
X111318210Y-69587500D02*
G75*
G02*
X111126790Y-69587500I-95710J0D01*
G01*
X111126790Y-69587500D02*
G75*
G02*
X111318210Y-69587500I95710J0D01*
G01*
D13*
%TO.C,R13*%
X106686359Y-67695000D02*
X106993641Y-67695000D01*
X106686359Y-68455000D02*
X106993641Y-68455000D01*
%TO.C,C37*%
X86540000Y-66811252D02*
X86540000Y-65388748D01*
X88360000Y-66811252D02*
X88360000Y-65388748D01*
%TO.C,C14*%
X107090000Y-71057836D02*
X107090000Y-70842164D01*
X107810000Y-71057836D02*
X107810000Y-70842164D01*
%TO.C,R22*%
X89569000Y-76831465D02*
X89569000Y-76524183D01*
X90329000Y-76831465D02*
X90329000Y-76524183D01*
%TO.C,C20*%
X94462164Y-94135000D02*
X94677836Y-94135000D01*
X94462164Y-94855000D02*
X94677836Y-94855000D01*
%TO.C,R7*%
X94806359Y-90575000D02*
X95113641Y-90575000D01*
X94806359Y-91335000D02*
X95113641Y-91335000D01*
%TO.C,C12*%
X111952500Y-84722164D02*
X111952500Y-84937836D01*
X112672500Y-84722164D02*
X112672500Y-84937836D01*
%TO.C,R6*%
X117286359Y-63920000D02*
X117593641Y-63920000D01*
X117286359Y-64680000D02*
X117593641Y-64680000D01*
%TO.C,R21*%
X123820000Y-104043641D02*
X123820000Y-103736359D01*
X124580000Y-104043641D02*
X124580000Y-103736359D01*
%TO.C,C33*%
X78565000Y-77012836D02*
X78565000Y-76797164D01*
X79285000Y-77012836D02*
X79285000Y-76797164D01*
%TO.C,U4*%
X93015000Y-76145000D02*
X93015000Y-76345000D01*
X93015000Y-79165000D02*
X93015000Y-79365000D01*
X93015000Y-79365000D02*
X96235000Y-79365000D01*
X96235000Y-76145000D02*
X93015000Y-76145000D01*
X96235000Y-76345000D02*
X96235000Y-76145000D01*
X96235000Y-79365000D02*
X96235000Y-79165000D01*
X96825000Y-76345000D02*
X96585000Y-76015000D01*
X97065000Y-76015000D01*
X96825000Y-76345000D01*
G36*
X96825000Y-76345000D02*
G01*
X96585000Y-76015000D01*
X97065000Y-76015000D01*
X96825000Y-76345000D01*
G37*
%TO.C,C15*%
X110450336Y-72277500D02*
X110234664Y-72277500D01*
X110450336Y-72997500D02*
X110234664Y-72997500D01*
%TO.C,R2*%
X122946359Y-69220000D02*
X123253641Y-69220000D01*
X122946359Y-69980000D02*
X123253641Y-69980000D01*
%TO.C,C1*%
X107220336Y-74390000D02*
X107004664Y-74390000D01*
X107220336Y-75110000D02*
X107004664Y-75110000D01*
%TO.C,R25*%
X88320000Y-78046359D02*
X88320000Y-78353641D01*
X89080000Y-78046359D02*
X89080000Y-78353641D01*
%TO.C,R26*%
X87288641Y-74625000D02*
X86981359Y-74625000D01*
X87288641Y-75385000D02*
X86981359Y-75385000D01*
%TO.C,C6*%
X107270336Y-81590000D02*
X107054664Y-81590000D01*
X107270336Y-82310000D02*
X107054664Y-82310000D01*
%TO.C,D1*%
X88250000Y-84360000D02*
X88250000Y-88370000D01*
X88250000Y-84360000D02*
X90250000Y-84360000D01*
X90250000Y-84360000D02*
X90250000Y-88370000D01*
%TO.C,R23*%
X89310000Y-79033641D02*
X89310000Y-78726359D01*
X90070000Y-79033641D02*
X90070000Y-78726359D01*
%TO.C,Q1*%
X91320000Y-90435000D02*
X91320000Y-91095000D01*
X91320000Y-92095000D02*
X91320000Y-92755000D01*
X92730000Y-90435000D02*
X91320000Y-90435000D01*
X92730000Y-92755000D02*
X91320000Y-92755000D01*
X93100000Y-90455000D02*
X92860000Y-90125000D01*
X93340000Y-90125000D01*
X93100000Y-90455000D01*
G36*
X93100000Y-90455000D02*
G01*
X92860000Y-90125000D01*
X93340000Y-90125000D01*
X93100000Y-90455000D01*
G37*
%TO.C,C22*%
X94687836Y-93035000D02*
X94472164Y-93035000D01*
X94687836Y-93755000D02*
X94472164Y-93755000D01*
%TO.C,SW2*%
X124300000Y-82750000D02*
X124300000Y-78350000D01*
X125900000Y-78350000D02*
X125800000Y-78350000D01*
X125900000Y-82750000D02*
X125800000Y-82750000D01*
X127400000Y-78350000D02*
X127400000Y-82750000D01*
%TO.C,C24*%
X93372164Y-83310000D02*
X93587836Y-83310000D01*
X93372164Y-84030000D02*
X93587836Y-84030000D01*
%TO.C,C25*%
X99312164Y-94140000D02*
X99527836Y-94140000D01*
X99312164Y-94860000D02*
X99527836Y-94860000D01*
%TO.C,U5*%
X82090000Y-75640000D02*
X82090000Y-75735000D01*
X82090000Y-80665000D02*
X82090000Y-80760000D01*
X82090000Y-80760000D02*
X86210000Y-80760000D01*
X86210000Y-75640000D02*
X82090000Y-75640000D01*
X86210000Y-75735000D02*
X86210000Y-75640000D01*
X86210000Y-80760000D02*
X86210000Y-80665000D01*
X81790000Y-81000000D02*
X81310000Y-81000000D01*
X81550000Y-80670000D01*
X81790000Y-81000000D01*
G36*
X81790000Y-81000000D02*
G01*
X81310000Y-81000000D01*
X81550000Y-80670000D01*
X81790000Y-81000000D01*
G37*
%TO.C,C7*%
X112602500Y-73257836D02*
X112602500Y-73042164D01*
X113322500Y-73257836D02*
X113322500Y-73042164D01*
%TO.C,R5*%
X117286359Y-62620000D02*
X117593641Y-62620000D01*
X117286359Y-63380000D02*
X117593641Y-63380000D01*
%TO.C,C18*%
X118484664Y-92640000D02*
X118700336Y-92640000D01*
X118484664Y-93360000D02*
X118700336Y-93360000D01*
%TO.C,C31*%
X90589000Y-76785660D02*
X90589000Y-76569988D01*
X91309000Y-76785660D02*
X91309000Y-76569988D01*
%TO.C,C4*%
X113902500Y-84722164D02*
X113902500Y-84937836D01*
X114622500Y-84722164D02*
X114622500Y-84937836D01*
%TO.C,C9*%
X113602500Y-73257836D02*
X113602500Y-73042164D01*
X114322500Y-73257836D02*
X114322500Y-73042164D01*
%TO.C,D2*%
X95800000Y-84310000D02*
X95800000Y-88320000D01*
X95800000Y-84310000D02*
X97800000Y-84310000D01*
X97800000Y-84310000D02*
X97800000Y-88320000D01*
%TO.C,C8*%
X116352500Y-73257836D02*
X116352500Y-73042164D01*
X117072500Y-73257836D02*
X117072500Y-73042164D01*
%TO.C,D3*%
X92000000Y-89030000D02*
X92000000Y-85020000D01*
X94000000Y-89030000D02*
X92000000Y-89030000D01*
X94000000Y-89030000D02*
X94000000Y-85020000D01*
%TO.C,C5*%
X119404664Y-79490000D02*
X119620336Y-79490000D01*
X119404664Y-80210000D02*
X119620336Y-80210000D01*
%TO.C,C26*%
X89642164Y-83310000D02*
X89857836Y-83310000D01*
X89642164Y-84030000D02*
X89857836Y-84030000D01*
%TO.C,C32*%
X90589000Y-78759988D02*
X90589000Y-78975660D01*
X91309000Y-78759988D02*
X91309000Y-78975660D01*
%TO.C,R9*%
X106686359Y-60635000D02*
X106993641Y-60635000D01*
X106686359Y-61395000D02*
X106993641Y-61395000D01*
%TO.C,Y1*%
X116902500Y-88290000D02*
X120322500Y-88290000D01*
X120322500Y-88290000D02*
X120322500Y-92410000D01*
%TO.C,R1*%
X105620000Y-72103641D02*
X105620000Y-71796359D01*
X106380000Y-72103641D02*
X106380000Y-71796359D01*
%TO.C,C35*%
X84536252Y-81195000D02*
X83113748Y-81195000D01*
X84536252Y-83015000D02*
X83113748Y-83015000D01*
%TO.C,R29*%
X117603641Y-65170000D02*
X117296359Y-65170000D01*
X117603641Y-65930000D02*
X117296359Y-65930000D01*
%TO.C,J2*%
X77400000Y-60300000D02*
X77400000Y-63500000D01*
X77400000Y-66100000D02*
X77400000Y-75000000D01*
X77400000Y-75000000D02*
X83600000Y-75000000D01*
X77900000Y-57800000D02*
X77900000Y-60300000D01*
X77900000Y-60300000D02*
X77400000Y-60300000D01*
X83100000Y-57800000D02*
X77900000Y-57800000D01*
X83100000Y-60300000D02*
X83100000Y-57800000D01*
X83600000Y-60300000D02*
X83100000Y-60300000D01*
X83600000Y-61500000D02*
X83600000Y-60300000D01*
X83600000Y-61500000D02*
X85600000Y-61500000D01*
X83600000Y-64100000D02*
X85600000Y-64100000D01*
X83600000Y-70600000D02*
X83600000Y-64100000D01*
X83600000Y-75000000D02*
X83600000Y-73800000D01*
%TO.C,SW1*%
X124300000Y-75100000D02*
X124300000Y-70700000D01*
X125900000Y-70700000D02*
X125800000Y-70700000D01*
X125900000Y-75100000D02*
X125800000Y-75100000D01*
X127400000Y-70700000D02*
X127400000Y-75100000D01*
%TO.C,U2*%
X84340000Y-96305000D02*
X86800000Y-96305000D01*
X84340000Y-98665000D02*
X84340000Y-96305000D01*
X86800000Y-96305000D02*
X86800000Y-95265000D01*
X86800000Y-97225000D02*
X86800000Y-98665000D01*
X86800000Y-98665000D02*
X84340000Y-98665000D01*
X98800000Y-95265000D02*
X86800000Y-95265000D01*
X98800000Y-96305000D02*
X98800000Y-95265000D01*
X98800000Y-97225000D02*
X86800000Y-97225000D01*
X98800000Y-97225000D02*
X98800000Y-98665000D01*
X98800000Y-98665000D02*
X101260000Y-98665000D01*
X101260000Y-96305000D02*
X98800000Y-96305000D01*
X101260000Y-98665000D02*
X101260000Y-96305000D01*
%TO.C,C16*%
X109987836Y-73277500D02*
X109772164Y-73277500D01*
X109987836Y-73997500D02*
X109772164Y-73997500D01*
%TO.C,C27*%
X92757836Y-94135000D02*
X92542164Y-94135000D01*
X92757836Y-94855000D02*
X92542164Y-94855000D01*
%TO.C,R27*%
X79570000Y-77053641D02*
X79570000Y-76746359D01*
X80330000Y-77053641D02*
X80330000Y-76746359D01*
%TO.C,C2*%
X107220336Y-75390000D02*
X107004664Y-75390000D01*
X107220336Y-76110000D02*
X107004664Y-76110000D01*
%TO.C,C17*%
X118690336Y-87290000D02*
X118474664Y-87290000D01*
X118690336Y-88010000D02*
X118474664Y-88010000D01*
%TO.C,J1*%
X92240000Y-58640000D02*
X92240000Y-60450000D01*
X92240000Y-62350000D02*
X92240000Y-68650000D01*
X92350000Y-58640000D02*
X92240000Y-58640000D01*
X105110000Y-58640000D02*
X93850000Y-58640000D01*
X105110000Y-59800000D02*
X105110000Y-58640000D01*
X105110000Y-63050000D02*
X105110000Y-68650000D01*
%TO.C,C3*%
X105070000Y-75837836D02*
X105070000Y-75622164D01*
X105790000Y-75837836D02*
X105790000Y-75622164D01*
%TO.C,C10*%
X115152500Y-73257836D02*
X115152500Y-73042164D01*
X115872500Y-73257836D02*
X115872500Y-73042164D01*
%TO.C,R4*%
X122936359Y-83470000D02*
X123243641Y-83470000D01*
X122936359Y-84230000D02*
X123243641Y-84230000D01*
%TO.C,L2*%
X85940000Y-90805242D02*
X85940000Y-89134758D01*
X87760000Y-90805242D02*
X87760000Y-89134758D01*
%TO.C,C30*%
X98020000Y-78967836D02*
X98020000Y-78752164D01*
X98740000Y-78967836D02*
X98740000Y-78752164D01*
%TO.C,C21*%
X95590000Y-94152836D02*
X95590000Y-93937164D01*
X96310000Y-94152836D02*
X96310000Y-93937164D01*
%TO.C,R11*%
X106686359Y-64195000D02*
X106993641Y-64195000D01*
X106686359Y-64955000D02*
X106993641Y-64955000D01*
%TD*%
M02*
