M48
; DRILL file {KiCad 9.0.6} date 2025-12-31T21:00:36+0200
; FORMAT={-:-/ absolute / metric / decimal}
; #@! TF.CreationDate,2025-12-31T21:00:36+02:00
; #@! TF.GenerationSoftware,Kicad,Pcbnew,9.0.6
; #@! TF.FileFunction,Plated,1,2,PTH
FMAT,2
METRIC
; #@! TA.AperFunction,Plated,PTH,ComponentDrill
T1C0.250
; #@! TA.AperFunction,Plated,PTH,ViaDrill
T2C0.300
; #@! TA.AperFunction,Plated,PTH,ComponentDrill
T3C0.450
; #@! TA.AperFunction,Plated,PTH,ComponentDrill
T4C1.000
; #@! TA.AperFunction,Plated,PTH,ComponentDrill
T5C1.500
%
G90
G05
T1
X111.3Y-77.075
X111.3Y-78.45
X111.3Y-79.825
X112.675Y-77.075
X112.675Y-78.45
X112.675Y-79.825
X114.05Y-77.075
X114.05Y-78.45
X114.05Y-79.825
T2
X80.92Y-82.1
X81.73Y-62.83
X83.95Y-84.4
X83.95Y-86.35
X84.2Y-66.88
X84.6Y-80.35
X85.35Y-69.275
X85.39Y-95.07
X86.625Y-80.86
X86.71Y-84.43
X86.74Y-86.36
X86.74Y-89.76
X87.27Y-62.86
X88.0Y-78.71
X88.68Y-75.0
X88.84Y-92.48
X88.85Y-67.65
X90.67Y-97.545
X91.273Y-94.495
X91.348Y-98.052
X92.0Y-98.525
X92.07Y-89.59
X92.23Y-81.67
X92.66Y-74.44
X92.69Y-93.25
X92.74Y-106.75
X92.874Y-98.528
X93.515Y-77.755
X93.559Y-98.116
X93.643Y-76.592
X93.65Y-78.765
X93.701Y-94.869
X94.125Y-97.55
X94.19Y-79.88
X94.26Y-81.66
X94.48Y-69.57
X95.81Y-90.02
X96.04Y-97.56
X97.55Y-97.294
X97.73Y-75.15
X98.72Y-83.31
X98.8Y-71.45
X99.46Y-78.6
X99.8Y-82.38
X101.06Y-67.78
X101.09Y-73.04
X101.91Y-78.5
X102.41Y-92.44
X102.559Y-85.969
X105.203Y-71.13
X105.22Y-87.63
X105.322Y-83.869
X105.33Y-107.03
X105.37Y-108.85
X105.376Y-83.171
X105.44Y-73.58
X105.44Y-74.13
X105.44Y-74.68
X105.746Y-82.024
X105.83Y-59.14
X107.35Y-63.71
X107.35Y-67.21
X107.726Y-84.1
X108.31Y-86.6
X108.335Y-83.5
X108.59Y-90.88
X108.95Y-82.9
X109.13Y-62.55
X109.2Y-65.47
X109.322Y-71.888
X110.13Y-73.473
X110.2Y-88.76
X110.24Y-106.31
X110.68Y-75.829
X110.84Y-90.63
X110.92Y-93.34
X111.007Y-88.718
X111.05Y-95.449
X111.14Y-84.11
X111.864Y-88.727
X112.0Y-82.95
X113.23Y-88.37
X113.48Y-73.63
X114.1Y-64.3
X114.37Y-87.12
X114.425Y-83.62
X114.83Y-89.93
X114.954Y-83.162
X115.01Y-77.65
X115.212Y-80.999
X115.913Y-82.203
X116.01Y-88.81
X116.112Y-74.27
X116.314Y-81.629
X116.4Y-64.3
X116.83Y-74.88
X116.92Y-84.59
X117.069Y-80.699
X117.12Y-75.44
X117.44Y-67.05
X117.47Y-68.85
X117.56Y-80.2
X117.7Y-73.62
X117.731Y-79.521
X117.8Y-70.82
X117.82Y-86.11
X118.28Y-74.1
X118.29Y-79.1
X118.82Y-74.65
X118.91Y-85.36
X118.96Y-78.6
X119.32Y-75.13
X119.573Y-78.064
X119.95Y-60.076
X120.41Y-78.49
X120.91Y-82.69
X120.92Y-80.78
X122.05Y-62.9
X122.137Y-64.18
X122.28Y-77.4
X122.57Y-71.95
X122.99Y-77.0
X123.1Y-70.62
X123.91Y-88.17
X124.855Y-76.605
X124.95Y-63.75
X125.05Y-84.59
X125.06Y-72.2
X125.105Y-64.535
X125.76Y-76.11
X127.217Y-81.705
T4
X111.65Y-99.4
X111.65Y-101.9
X111.65Y-104.4
X126.15Y-99.4
X126.15Y-104.4
T3
G00X123.675Y-58.8
M15
G01X122.675Y-58.8
M16
G05
G00X123.675Y-67.7
M15
G01X122.675Y-67.7
M16
G05
G00X126.975Y-58.8
M15
G01X125.775Y-58.8
M16
G05
G00X126.975Y-67.7
M15
G01X125.775Y-67.7
M16
G05
T5
G00X118.5Y-96.3
M15
G01X119.8Y-96.3
M16
G05
G00X118.5Y-107.5
M15
G01X119.8Y-107.5
M16
G05
M30
