%TF.GenerationSoftware,KiCad,Pcbnew,9.0.6*%
%TF.CreationDate,2025-12-31T21:00:04+02:00*%
%TF.ProjectId,MiPi,4d695069-2e6b-4696-9361-645f70636258,1.0*%
%TF.SameCoordinates,Original*%
%TF.FileFunction,Paste,Bot*%
%TF.FilePolarity,Positive*%
%FSLAX46Y46*%
G04 Gerber Fmt 4.6, Leading zero omitted, Abs format (unit mm)*
G04 Created by KiCad (PCBNEW 9.0.6) date 2025-12-31 21:00:04*
%MOMM*%
%LPD*%
G01*
G04 APERTURE LIST*
G04 Aperture macros list*
%AMRoundRect*
0 Rectangle with rounded corners*
0 $1 Rounding radius*
0 $2 $3 $4 $5 $6 $7 $8 $9 X,Y pos of 4 corners*
0 Add a 4 corners polygon primitive as box body*
4,1,4,$2,$3,$4,$5,$6,$7,$8,$9,$2,$3,0*
0 Add four circle primitives for the rounded corners*
1,1,$1+$1,$2,$3*
1,1,$1+$1,$4,$5*
1,1,$1+$1,$6,$7*
1,1,$1+$1,$8,$9*
0 Add four rect primitives between the rounded corners*
20,1,$1+$1,$2,$3,$4,$5,0*
20,1,$1+$1,$4,$5,$6,$7,0*
20,1,$1+$1,$6,$7,$8,$9,0*
20,1,$1+$1,$8,$9,$2,$3,0*%
%AMFreePoly0*
4,1,18,-0.437500,0.050000,-0.433694,0.069134,-0.422855,0.085355,-0.406634,0.096194,-0.387500,0.100000,0.387500,0.100000,0.406634,0.096194,0.422855,0.085355,0.433694,0.069134,0.437500,0.050000,0.437500,-0.050000,0.387500,-0.100000,-0.387500,-0.100000,-0.406634,-0.096194,-0.422855,-0.085355,-0.433694,-0.069134,-0.437500,-0.050000,-0.437500,0.050000,-0.437500,0.050000,$1*%
%AMFreePoly1*
4,1,18,-0.437500,0.050000,-0.433694,0.069134,-0.422855,0.085355,-0.406634,0.096194,-0.387500,0.100000,0.387500,0.100000,0.437500,0.050000,0.437500,-0.050000,0.433694,-0.069134,0.422855,-0.085355,0.406634,-0.096194,0.387500,-0.100000,-0.387500,-0.100000,-0.406634,-0.096194,-0.422855,-0.085355,-0.433694,-0.069134,-0.437500,-0.050000,-0.437500,0.050000,-0.437500,0.050000,$1*%
%AMFreePoly2*
4,1,18,-0.100000,0.387500,-0.096194,0.406634,-0.085355,0.422855,-0.069134,0.433694,-0.050000,0.437500,0.050000,0.437500,0.069134,0.433694,0.085355,0.422855,0.096194,0.406634,0.100000,0.387500,0.100000,-0.387500,0.096194,-0.406634,0.085355,-0.422855,0.069134,-0.433694,0.050000,-0.437500,-0.050000,-0.437500,-0.100000,-0.387500,-0.100000,0.387500,-0.100000,0.387500,$1*%
%AMFreePoly3*
4,1,18,-0.100000,0.387500,-0.096194,0.406634,-0.085355,0.422855,-0.069134,0.433694,-0.050000,0.437500,0.050000,0.437500,0.069134,0.433694,0.085355,0.422855,0.096194,0.406634,0.100000,0.387500,0.100000,-0.387500,0.050000,-0.437500,-0.050000,-0.437500,-0.069134,-0.433694,-0.085355,-0.422855,-0.096194,-0.406634,-0.100000,-0.387500,-0.100000,0.387500,-0.100000,0.387500,$1*%
%AMFreePoly4*
4,1,18,-0.437500,0.050000,-0.387500,0.100000,0.387500,0.100000,0.406634,0.096194,0.422855,0.085355,0.433694,0.069134,0.437500,0.050000,0.437500,-0.050000,0.433694,-0.069134,0.422855,-0.085355,0.406634,-0.096194,0.387500,-0.100000,-0.387500,-0.100000,-0.406634,-0.096194,-0.422855,-0.085355,-0.433694,-0.069134,-0.437500,-0.050000,-0.437500,0.050000,-0.437500,0.050000,$1*%
%AMFreePoly5*
4,1,18,-0.437500,0.050000,-0.433694,0.069134,-0.422855,0.085355,-0.406634,0.096194,-0.387500,0.100000,0.387500,0.100000,0.406634,0.096194,0.422855,0.085355,0.433694,0.069134,0.437500,0.050000,0.437500,-0.050000,0.433694,-0.069134,0.422855,-0.085355,0.406634,-0.096194,0.387500,-0.100000,-0.387500,-0.100000,-0.437500,-0.050000,-0.437500,0.050000,-0.437500,0.050000,$1*%
%AMFreePoly6*
4,1,18,-0.100000,0.387500,-0.096194,0.406634,-0.085355,0.422855,-0.069134,0.433694,-0.050000,0.437500,0.050000,0.437500,0.100000,0.387500,0.100000,-0.387500,0.096194,-0.406634,0.085355,-0.422855,0.069134,-0.433694,0.050000,-0.437500,-0.050000,-0.437500,-0.069134,-0.433694,-0.085355,-0.422855,-0.096194,-0.406634,-0.100000,-0.387500,-0.100000,0.387500,-0.100000,0.387500,$1*%
%AMFreePoly7*
4,1,18,-0.100000,0.387500,-0.050000,0.437500,0.050000,0.437500,0.069134,0.433694,0.085355,0.422855,0.096194,0.406634,0.100000,0.387500,0.100000,-0.387500,0.096194,-0.406634,0.085355,-0.422855,0.069134,-0.433694,0.050000,-0.437500,-0.050000,-0.437500,-0.069134,-0.433694,-0.085355,-0.422855,-0.096194,-0.406634,-0.100000,-0.387500,-0.100000,0.387500,-0.100000,0.387500,$1*%
G04 Aperture macros list end*
%ADD10RoundRect,0.135000X-0.185000X0.135000X-0.185000X-0.135000X0.185000X-0.135000X0.185000X0.135000X0*%
%ADD11RoundRect,0.140000X0.140000X0.170000X-0.140000X0.170000X-0.140000X-0.170000X0.140000X-0.170000X0*%
%ADD12RoundRect,0.135000X-0.135000X-0.185000X0.135000X-0.185000X0.135000X0.185000X-0.135000X0.185000X0*%
%ADD13RoundRect,0.250000X0.350000X0.350000X-0.350000X0.350000X-0.350000X-0.350000X0.350000X-0.350000X0*%
%ADD14FreePoly0,180.000000*%
%ADD15RoundRect,0.050000X0.387500X0.050000X-0.387500X0.050000X-0.387500X-0.050000X0.387500X-0.050000X0*%
%ADD16FreePoly1,180.000000*%
%ADD17FreePoly2,180.000000*%
%ADD18RoundRect,0.050000X0.050000X0.387500X-0.050000X0.387500X-0.050000X-0.387500X0.050000X-0.387500X0*%
%ADD19FreePoly3,180.000000*%
%ADD20FreePoly4,180.000000*%
%ADD21FreePoly5,180.000000*%
%ADD22FreePoly6,180.000000*%
%ADD23FreePoly7,180.000000*%
%ADD24RoundRect,0.075000X-0.300000X0.075000X-0.300000X-0.075000X0.300000X-0.075000X0.300000X0.075000X0*%
%ADD25RoundRect,0.062500X-0.312500X0.062500X-0.312500X-0.062500X0.312500X-0.062500X0.312500X0.062500X0*%
%ADD26RoundRect,0.140000X-0.170000X0.140000X-0.170000X-0.140000X0.170000X-0.140000X0.170000X0.140000X0*%
%ADD27RoundRect,0.140000X-0.140000X-0.170000X0.140000X-0.170000X0.140000X0.170000X-0.140000X0.170000X0*%
%ADD28RoundRect,0.135000X0.135000X0.185000X-0.135000X0.185000X-0.135000X-0.185000X0.135000X-0.185000X0*%
%ADD29RoundRect,0.250000X-0.650000X0.325000X-0.650000X-0.325000X0.650000X-0.325000X0.650000X0.325000X0*%
%ADD30R,0.700000X1.700000*%
%ADD31RoundRect,0.250000X0.650000X-0.325000X0.650000X0.325000X-0.650000X0.325000X-0.650000X-0.325000X0*%
%ADD32RoundRect,0.140000X0.170000X-0.140000X0.170000X0.140000X-0.170000X0.140000X-0.170000X-0.140000X0*%
%ADD33RoundRect,0.135000X0.185000X-0.135000X0.185000X0.135000X-0.185000X0.135000X-0.185000X-0.135000X0*%
%ADD34RoundRect,0.075000X0.650000X0.075000X-0.650000X0.075000X-0.650000X-0.075000X0.650000X-0.075000X0*%
%ADD35RoundRect,0.225000X-0.375000X0.225000X-0.375000X-0.225000X0.375000X-0.225000X0.375000X0.225000X0*%
%ADD36RoundRect,0.112500X-0.237500X0.112500X-0.237500X-0.112500X0.237500X-0.112500X0.237500X0.112500X0*%
%ADD37R,1.000000X0.900000*%
%ADD38RoundRect,0.150000X-0.825000X-0.150000X0.825000X-0.150000X0.825000X0.150000X-0.825000X0.150000X0*%
%ADD39RoundRect,0.225000X0.375000X-0.225000X0.375000X0.225000X-0.375000X0.225000X-0.375000X-0.225000X0*%
%ADD40RoundRect,0.250000X-0.350000X0.450000X-0.350000X-0.450000X0.350000X-0.450000X0.350000X0.450000X0*%
%ADD41RoundRect,0.250000X0.325000X0.650000X-0.325000X0.650000X-0.325000X-0.650000X0.325000X-0.650000X0*%
%ADD42R,2.800000X2.200000*%
%ADD43R,2.800000X2.800000*%
%ADD44R,1.500000X2.000000*%
%ADD45R,0.250000X1.600000*%
%ADD46R,0.700000X1.750000*%
%ADD47R,1.450000X1.000000*%
%ADD48R,1.000000X1.550000*%
%ADD49R,0.800000X1.500000*%
%ADD50R,1.300000X1.500000*%
%ADD51R,1.500000X1.500000*%
%ADD52R,0.800000X1.400000*%
%ADD53RoundRect,0.250000X0.700000X-0.275000X0.700000X0.275000X-0.700000X0.275000X-0.700000X-0.275000X0*%
G04 APERTURE END LIST*
D10*
%TO.C,R3*%
X116262500Y-90500000D03*
X116262500Y-91520000D03*
%TD*%
D11*
%TO.C,C13*%
X107592500Y-76950000D03*
X106632500Y-76950000D03*
%TD*%
%TO.C,C29*%
X99290000Y-77100000D03*
X98330000Y-77100000D03*
%TD*%
D12*
%TO.C,R8*%
X94450000Y-92095000D03*
X95470000Y-92095000D03*
%TD*%
D13*
%TO.C,U1*%
X113375000Y-79150000D03*
X113375000Y-77750000D03*
X111975000Y-79150000D03*
X111975000Y-77750000D03*
D14*
X116112500Y-75650000D03*
D15*
X116112500Y-76050000D03*
X116112500Y-76450000D03*
X116112500Y-76850000D03*
X116112500Y-77250000D03*
X116112500Y-77650000D03*
X116112500Y-78050000D03*
X116112500Y-78450000D03*
X116112500Y-78850000D03*
X116112500Y-79250000D03*
X116112500Y-79650000D03*
X116112500Y-80050000D03*
X116112500Y-80450000D03*
X116112500Y-80850000D03*
D16*
X116112500Y-81250000D03*
D17*
X115475000Y-81887500D03*
D18*
X115075000Y-81887500D03*
X114675000Y-81887500D03*
X114275000Y-81887500D03*
X113875000Y-81887500D03*
X113475000Y-81887500D03*
X113075000Y-81887500D03*
X112675000Y-81887500D03*
X112275000Y-81887500D03*
X111875000Y-81887500D03*
X111475000Y-81887500D03*
X111075000Y-81887500D03*
X110675000Y-81887500D03*
X110275000Y-81887500D03*
D19*
X109875000Y-81887500D03*
D20*
X109237500Y-81250000D03*
D15*
X109237500Y-80850000D03*
X109237500Y-80450000D03*
X109237500Y-80050000D03*
X109237500Y-79650000D03*
X109237500Y-79250000D03*
X109237500Y-78850000D03*
X109237500Y-78450000D03*
X109237500Y-78050000D03*
X109237500Y-77650000D03*
X109237500Y-77250000D03*
X109237500Y-76850000D03*
X109237500Y-76450000D03*
X109237500Y-76050000D03*
D21*
X109237500Y-75650000D03*
D22*
X109875000Y-75012500D03*
D18*
X110275000Y-75012500D03*
X110675000Y-75012500D03*
X111075000Y-75012500D03*
X111475000Y-75012500D03*
X111875000Y-75012500D03*
X112275000Y-75012500D03*
X112675000Y-75012500D03*
X113075000Y-75012500D03*
X113475000Y-75012500D03*
X113875000Y-75012500D03*
X114275000Y-75012500D03*
X114675000Y-75012500D03*
X115075000Y-75012500D03*
D23*
X115475000Y-75012500D03*
%TD*%
D24*
%TO.C,J3*%
X123000000Y-59700000D03*
D25*
X123000000Y-60200000D03*
D24*
X123000000Y-66800000D03*
D25*
X123000000Y-62000000D03*
X123000000Y-62500000D03*
X123000000Y-63000000D03*
X123000000Y-63500000D03*
X123000000Y-64000000D03*
X123000000Y-64500000D03*
X123000000Y-66300000D03*
X124250000Y-66250000D03*
X124250000Y-64750000D03*
X124250000Y-64250000D03*
X124250000Y-63750000D03*
X124250000Y-62750000D03*
X124250000Y-62250000D03*
X124250000Y-61750000D03*
X124250000Y-60250000D03*
%TD*%
D10*
%TO.C,R24*%
X79950000Y-78940000D03*
X79950000Y-79960000D03*
%TD*%
D26*
%TO.C,C34*%
X86675000Y-81595000D03*
X86675000Y-82555000D03*
%TD*%
D12*
%TO.C,R12*%
X106330000Y-66325000D03*
X107350000Y-66325000D03*
%TD*%
%TO.C,R10*%
X106330000Y-62775000D03*
X107350000Y-62775000D03*
%TD*%
D11*
%TO.C,C28*%
X94960000Y-89595000D03*
X94000000Y-89595000D03*
%TD*%
D27*
%TO.C,C19*%
X91170000Y-93445000D03*
X92130000Y-93445000D03*
%TD*%
D28*
%TO.C,R28*%
X117960000Y-61750000D03*
X116940000Y-61750000D03*
%TD*%
D29*
%TO.C,C36*%
X87450000Y-69275000D03*
X87450000Y-72225000D03*
%TD*%
D30*
%TO.C,L1*%
X111022500Y-70887500D03*
X109622500Y-70887500D03*
%TD*%
D12*
%TO.C,R13*%
X106330000Y-68075000D03*
X107350000Y-68075000D03*
%TD*%
D31*
%TO.C,C37*%
X87450000Y-67575000D03*
X87450000Y-64625000D03*
%TD*%
D32*
%TO.C,C14*%
X107450000Y-71430000D03*
X107450000Y-70470000D03*
%TD*%
D33*
%TO.C,R22*%
X89949000Y-77187824D03*
X89949000Y-76167824D03*
%TD*%
D27*
%TO.C,C20*%
X94090000Y-94495000D03*
X95050000Y-94495000D03*
%TD*%
D12*
%TO.C,R7*%
X94450000Y-90955000D03*
X95470000Y-90955000D03*
%TD*%
D26*
%TO.C,C12*%
X112312500Y-84350000D03*
X112312500Y-85310000D03*
%TD*%
D12*
%TO.C,R6*%
X116930000Y-64300000D03*
X117950000Y-64300000D03*
%TD*%
D33*
%TO.C,R21*%
X124200000Y-104400000D03*
X124200000Y-103380000D03*
%TD*%
D32*
%TO.C,C33*%
X78925000Y-77385000D03*
X78925000Y-76425000D03*
%TD*%
D34*
%TO.C,U4*%
X96825000Y-76755000D03*
X96825000Y-77255000D03*
X96825000Y-77755000D03*
X96825000Y-78255000D03*
X96825000Y-78755000D03*
X92425000Y-78755000D03*
X92425000Y-78255000D03*
X92425000Y-77755000D03*
X92425000Y-77255000D03*
X92425000Y-76755000D03*
%TD*%
D11*
%TO.C,C15*%
X110822500Y-72637500D03*
X109862500Y-72637500D03*
%TD*%
D12*
%TO.C,R2*%
X122590000Y-69600000D03*
X123610000Y-69600000D03*
%TD*%
D11*
%TO.C,C1*%
X107592500Y-74750000D03*
X106632500Y-74750000D03*
%TD*%
D10*
%TO.C,R25*%
X88700000Y-77690000D03*
X88700000Y-78710000D03*
%TD*%
D28*
%TO.C,R26*%
X87645000Y-75005000D03*
X86625000Y-75005000D03*
%TD*%
D11*
%TO.C,C6*%
X107642500Y-81950000D03*
X106682500Y-81950000D03*
%TD*%
D35*
%TO.C,D1*%
X89250000Y-85070000D03*
X89250000Y-88370000D03*
%TD*%
D33*
%TO.C,R23*%
X89690000Y-79390000D03*
X89690000Y-78370000D03*
%TD*%
D36*
%TO.C,Q1*%
X93050000Y-90945000D03*
X93050000Y-92245000D03*
X91050000Y-91595000D03*
%TD*%
D11*
%TO.C,C22*%
X95060000Y-93395000D03*
X94100000Y-93395000D03*
%TD*%
D37*
%TO.C,SW2*%
X125050000Y-78500000D03*
X125050000Y-82600000D03*
X126650000Y-78500000D03*
X126650000Y-82600000D03*
%TD*%
D27*
%TO.C,C24*%
X93000000Y-83670000D03*
X93960000Y-83670000D03*
%TD*%
%TO.C,C25*%
X98940000Y-94500000D03*
X99900000Y-94500000D03*
%TD*%
D38*
%TO.C,U5*%
X81675000Y-80105000D03*
X81675000Y-78835000D03*
X81675000Y-77565000D03*
X81675000Y-76295000D03*
X86625000Y-76295000D03*
X86625000Y-77565000D03*
X86625000Y-78835000D03*
X86625000Y-80105000D03*
%TD*%
D32*
%TO.C,C7*%
X112962500Y-73630000D03*
X112962500Y-72670000D03*
%TD*%
D12*
%TO.C,R5*%
X116930000Y-63000000D03*
X117950000Y-63000000D03*
%TD*%
D27*
%TO.C,C18*%
X118112500Y-93000000D03*
X119072500Y-93000000D03*
%TD*%
D32*
%TO.C,C31*%
X90949000Y-77157824D03*
X90949000Y-76197824D03*
%TD*%
D26*
%TO.C,C4*%
X114262500Y-84350000D03*
X114262500Y-85310000D03*
%TD*%
D32*
%TO.C,C9*%
X113962500Y-73630000D03*
X113962500Y-72670000D03*
%TD*%
D35*
%TO.C,D2*%
X96800000Y-85020000D03*
X96800000Y-88320000D03*
%TD*%
D32*
%TO.C,C8*%
X116712500Y-73630000D03*
X116712500Y-72670000D03*
%TD*%
D39*
%TO.C,D3*%
X93000000Y-88320000D03*
X93000000Y-85020000D03*
%TD*%
D27*
%TO.C,C5*%
X119032500Y-79850000D03*
X119992500Y-79850000D03*
%TD*%
%TO.C,C26*%
X89270000Y-83670000D03*
X90230000Y-83670000D03*
%TD*%
D26*
%TO.C,C32*%
X90949000Y-78387824D03*
X90949000Y-79347824D03*
%TD*%
D12*
%TO.C,R9*%
X106330000Y-61015000D03*
X107350000Y-61015000D03*
%TD*%
D40*
%TO.C,Y1*%
X119462500Y-89250000D03*
X119462500Y-91450000D03*
X117762500Y-91450000D03*
X117762500Y-89250000D03*
%TD*%
D33*
%TO.C,R1*%
X106000000Y-72460000D03*
X106000000Y-71440000D03*
%TD*%
D41*
%TO.C,C35*%
X85300000Y-82105000D03*
X82350000Y-82105000D03*
%TD*%
D28*
%TO.C,R29*%
X117960000Y-65550000D03*
X116940000Y-65550000D03*
%TD*%
D42*
%TO.C,J2*%
X76800000Y-64800000D03*
X84200000Y-62800000D03*
D43*
X84200000Y-72200000D03*
%TD*%
D37*
%TO.C,SW1*%
X125050000Y-70850000D03*
X125050000Y-74950000D03*
X126650000Y-70850000D03*
X126650000Y-74950000D03*
%TD*%
D44*
%TO.C,U2*%
X100150000Y-97545000D03*
X85450000Y-97545000D03*
D45*
X87050000Y-96245000D03*
X87550000Y-96245000D03*
X88050000Y-96245000D03*
X88550000Y-96245000D03*
X89050000Y-96245000D03*
X89550000Y-96245000D03*
X90050000Y-96245000D03*
X90550000Y-96245000D03*
X91050000Y-96245000D03*
X91550000Y-96245000D03*
X92050000Y-96245000D03*
X92550000Y-96245000D03*
X93050000Y-96245000D03*
X93550000Y-96245000D03*
X94050000Y-96245000D03*
X94550000Y-96245000D03*
X95050000Y-96245000D03*
X95550000Y-96245000D03*
X96050000Y-96245000D03*
X96550000Y-96245000D03*
X97050000Y-96245000D03*
X97550000Y-96245000D03*
X98050000Y-96245000D03*
X98550000Y-96245000D03*
%TD*%
D11*
%TO.C,C16*%
X110360000Y-73637500D03*
X109400000Y-73637500D03*
%TD*%
%TO.C,C27*%
X93130000Y-94495000D03*
X92170000Y-94495000D03*
%TD*%
D33*
%TO.C,R27*%
X79950000Y-77410000D03*
X79950000Y-76390000D03*
%TD*%
D11*
%TO.C,C2*%
X107592500Y-75750000D03*
X106632500Y-75750000D03*
%TD*%
%TO.C,C17*%
X119062500Y-87650000D03*
X118102500Y-87650000D03*
%TD*%
D46*
%TO.C,J1*%
X95500000Y-69775000D03*
X96600000Y-69775000D03*
X97700000Y-69775000D03*
X98800000Y-69775000D03*
X99900000Y-69775000D03*
X101000000Y-69775000D03*
X102100000Y-69775000D03*
X103200000Y-69775000D03*
D47*
X104325000Y-60550000D03*
D48*
X93100000Y-58975000D03*
D49*
X104650000Y-62050000D03*
D50*
X104400000Y-69650000D03*
D51*
X93050000Y-69650000D03*
D52*
X92700000Y-61400000D03*
%TD*%
D32*
%TO.C,C3*%
X105430000Y-76210000D03*
X105430000Y-75250000D03*
%TD*%
%TO.C,C10*%
X115512500Y-73630000D03*
X115512500Y-72670000D03*
%TD*%
D12*
%TO.C,R4*%
X122580000Y-83850000D03*
X123600000Y-83850000D03*
%TD*%
D53*
%TO.C,L2*%
X86850000Y-91545000D03*
X86850000Y-88395000D03*
%TD*%
D32*
%TO.C,C30*%
X98380000Y-79340000D03*
X98380000Y-78380000D03*
%TD*%
%TO.C,C21*%
X95950000Y-94525000D03*
X95950000Y-93565000D03*
%TD*%
D12*
%TO.C,R11*%
X106330000Y-64575000D03*
X107350000Y-64575000D03*
%TD*%
M02*
